<svg width="800" height="265" viewBox="0 0 800 265" fill="none" xmlns="http://www.w3.org/2000/svg"><path d="M73.675 89.27l6.634 3.908 6.637 3.913 33.172 19.556 6.634 3.908 6.633 3.913 6.638 3.909 6.634-3.909 6.634-3.913 6.632-3.908 33.173-19.556 6.632-3.913 6.638-3.909 13.268-7.821 6.354-3.744-6.354-3.748-.28-.165L213 70.047l-.28-.169-6.354-3.743-.279-.165-6.359-3.748-.279-.161-6.353-3.748-.28-.165-6.354-3.748-.28-.165-6.354-3.743-.279-.165-6.354-3.748-.284-.165-6.354-3.744-.28-.165-6.354-3.748-.28-.165-6.352-3.743-.28-.165-6.354-3.748-.28-.165-6.309-3.72v23.136l6.589 3.883 6.634 3.913 6.632 3.909 6.634 3.913 19.905 11.73v.004l-13.267 7.817-6.638 3.913-6.634 3.909v.004l-6.632 3.909-13.268 7.821-13.271-7.821-6.634-3.909v-.004l-6.633-3.909-6.638-3.913L93.58 77.54v-.004l19.905-11.73 6.633-3.913 6.634-3.909 6.633-3.913 6.638-3.908.045.025V27.052l-.045-.025-6.358 3.744-.28.165-6.354 3.748-.279.165-6.354 3.743-.28.165-6.354 3.748-.279.165-6.358 3.744-.28.165-6.354 3.748-.28.165-6.353 3.743-.28.165-6.354 3.748-.28.165-6.354 3.748-.283.16-6.354 3.749-.28.165-6.354 3.743-.28.17-6.353 3.743-.28.165-6.354 3.748 6.354 3.744 13.267 7.821z" fill="#EC1F48"/><path d="M146.655 69.714v.004l6.634 3.909 19.906 11.73 13.266-7.817v-.004l-19.904-11.73-6.634-3.913-6.634-3.909-6.634-3.913-6.587-3.884v15.648l6.587 3.88z" fill="#EC1F48"/><path d="M146.655 69.714v.004l6.634 3.909 19.906 11.73 13.266-7.817v-.004l-19.904-11.73-6.634-3.913-6.634-3.909-6.634-3.913-6.587-3.884v15.648l6.587 3.88z" fill="#000" fill-opacity=".2"/><path d="M133.382 54.072l-6.633 3.913-6.634 3.909-6.633 3.913-19.905 11.73v.004l13.267 7.817 19.905-11.73 6.633-3.909v-.004l6.638-3.909.045.03V50.187l-.045-.025-6.638 3.91z" fill="#EC1F48"/><path d="M133.382 54.072l-6.633 3.913-6.634 3.909-6.633 3.913-19.905 11.73v.004l13.267 7.817 19.905-11.73 6.633-3.909v-.004l6.638-3.909.045.03V50.187l-.045-.025-6.638 3.91z" fill="#000" fill-opacity=".6"/><path d="M133.385 171.396l-13.267-7.822-6.633-3.909-6.638-3.912-6.634-3.912-6.633-3.91-6.634-3.912h-.004l-6.633-3.91-6.634-3.908v-23.469l6.634 3.913 6.637 3.909 6.634 3.913 6.633 3.908 6.634 3.913 13.271 7.821 6.634 3.91 6.633 3.912h.004l6.634 3.91v-23.466l-6.638-3.908-6.633-3.913-6.634-3.909-33.172-19.556-6.637-3.912-6.634-3.91-13.267-7.82-6.354-3.745v62.572l6.354 3.745 6.633 3.912 6.634 3.91 19.905 11.733 6.633 3.912 6.634 3.91 6.638 3.908 6.633 3.914v23.464l-6.633-3.909h-.005l-6.633-3.912-19.9-11.731h-.005l-6.633-3.912-6.634-3.91v-.004l-13.267-7.818h-.004l-6.35-3.747v15.314l6.354 3.743.28.165 6.353 3.748.28.165 6.354 3.744.28.164 6.354 3.749.283.165 6.354 3.747.28.161 6.354 3.747.28.165 6.353 3.745.28.169 6.354 3.743.28.165 6.358 3.744.279.169 6.354 3.744.28.164 6.354 3.749.279.165 6.354 3.743.28.165 6.358 3.749v-54.422l-6.638-3.912z" fill="#EC1F48"/><path d="M133.385 171.396l-13.267-7.822-6.633-3.909-6.638-3.912-6.634-3.912-6.633-3.91-6.634-3.912h-.004l-6.633-3.91-6.634-3.908v-23.469l6.634 3.913 6.637 3.909 6.634 3.913 6.633 3.908 6.634 3.913 13.271 7.821 6.634 3.91 6.633 3.912h.004l6.634 3.91v-23.466l-6.638-3.908-6.633-3.913-6.634-3.909-33.172-19.556-6.637-3.912-6.634-3.91-13.267-7.82-6.354-3.745v62.572l6.354 3.745 6.633 3.912 6.634 3.91 19.905 11.733 6.633 3.912 6.634 3.91 6.638 3.908 6.633 3.914v23.464l-6.633-3.909h-.005l-6.633-3.912-19.9-11.731h-.005l-6.633-3.912-6.634-3.91v-.004l-13.267-7.818h-.004l-6.35-3.747v15.314l6.354 3.743.28.165 6.353 3.748.28.165 6.354 3.744.28.164 6.354 3.749.283.165 6.354 3.747.28.161 6.354 3.747.28.165 6.353 3.745.28.169 6.354 3.743.28.165 6.358 3.744.279.169 6.354 3.744.28.164 6.354 3.749.279.165 6.354 3.743.28.165 6.358 3.749v-54.422l-6.638-3.912z" fill="#000" fill-opacity=".2"/><path d="M60.408 167.493l13.267 7.818v.004l6.634 3.908 6.633 3.913h.004l19.901 11.73 6.633 3.912h.005l6.633 3.91v-15.643l-6.633-3.909-6.638-3.913-6.634-3.912-19.904-11.731-6.634-3.912-6.633-3.91-6.634 3.91h-.004l-6.35 3.747v.33l6.35 3.748h.004zm59.718-19.559l-6.634-3.914-6.637-3.908-19.9-11.734-13.272 7.822v.004l6.633 3.908 6.634 3.908h.004l6.634 3.914 6.633 3.908 6.634 3.913 6.637 3.913 6.634 3.909 13.267 7.822 6.638 3.912v-15.647l-13.272-7.822-6.633-3.908zm-33.172-27.381l-6.637-3.908-6.634-3.913v23.464l13.271-7.821v-7.822z" fill="#EC1F48"/><path d="M86.954 120.553l-6.637-3.908-6.634-3.913v23.464l13.271-7.821v-7.822z" fill="#000" fill-opacity=".6"/><path d="M219.643 136.214l6.354-3.748V77.702l-6.354 3.744-13.271 7.834-6.634 3.913-6.634 3.913-33.172 19.551-6.633 3.909-6.633 3.909-6.638 3.904V229.73l6.354-3.749.28-.165 6.354-3.743.279-.165 6.354-3.744.283-.169 6.354-3.744.28-.165 6.354-3.748.28-.165 6.354-3.743.28-.165 6.354-3.747.284-.165 6.352-3.745.28-.165 6.354-3.747.28-.165 6.354-3.745.28-.164 6.354-3.748.283-.165 6.35-3.744.28-.165 6.354-3.747v-31.295l-6.354-3.743-6.634-3.914 6.638-3.887zm-13.271 39.108l-6.634 3.912-6.634 3.908-19.904 11.731-6.634 3.908-6.634 3.914v-23.477l6.634-3.91 6.634-3.912 6.634-3.91 6.638-3.912 6.632-3.909 13.268-7.834v23.491zm0-39.108l-6.634 3.908-6.634 3.913-6.632 3.908-6.638 3.914-6.634 3.908-6.634 3.913-6.634 3.908v-23.464l13.268-7.834 6.634-3.909 6.638-3.912 6.632-3.909 6.634-3.909 6.634-3.913v23.478z" fill="#EC1F48"/><path d="M219.643 136.214l6.354-3.748V77.702l-6.354 3.744-13.271 7.834-6.634 3.913-6.634 3.913-33.172 19.551-6.633 3.909-6.633 3.909-6.638 3.904V229.73l6.354-3.749.28-.165 6.354-3.743.279-.165 6.354-3.744.283-.169 6.354-3.744.28-.165 6.354-3.748.28-.165 6.354-3.743.28-.165 6.354-3.747.284-.165 6.352-3.745.28-.165 6.354-3.747.28-.165 6.354-3.745.28-.164 6.354-3.748.283-.165 6.35-3.744.28-.165 6.354-3.747v-31.295l-6.354-3.743-6.634-3.914 6.638-3.887zm-13.271 39.108l-6.634 3.912-6.634 3.908-19.904 11.731-6.634 3.908-6.634 3.914v-23.477l6.634-3.91 6.634-3.912 6.634-3.91 6.638-3.912 6.632-3.909 13.268-7.834v23.491zm0-39.108l-6.634 3.908-6.634 3.913-6.632 3.908-6.638 3.914-6.634 3.908-6.634 3.913-6.634 3.908v-23.464l13.268-7.834 6.634-3.909 6.638-3.912 6.632-3.909 6.634-3.909 6.634-3.913v23.478z" fill="#000" fill-opacity=".3"/><path d="M179.823 175.311l-6.634 3.912-6.638 3.913-6.633 3.909v15.643l6.633-3.91h.004l6.634-3.912 19.902-11.73 6.632-3.913 6.638-3.908v-.004l-13.27-7.818-13.268 7.818zm-6.634-35.199l-6.638 3.908-6.633 3.914v15.643l6.633-3.909 6.638-3.913 6.634-3.913 6.634-3.908 6.634-3.914 6.632-3.908 6.638-3.908v-.004l-13.27-7.822-19.902 11.734zm19.906 27.374l13.271 7.818v-23.465l-13.271 7.822v7.825z" fill="#EC1F48"/><path d="M193.095 167.486l13.271 7.818v-23.465l-13.271 7.822v7.825z" fill="#000" fill-opacity=".6"/><path d="M199.728 116.645l-6.633 3.908v7.822l13.271 7.821v-23.464l-6.638 3.913z" fill="#EC1F48"/><path d="M199.728 116.645l-6.633 3.908v7.822l13.271 7.821v-23.464l-6.638 3.913z" fill="#000" fill-opacity=".6"/><g filter="url(#filter0_f_1778_88418)"><path d="M140.026 251.351c47.48 0 85.971-1.21 85.971-2.702 0-1.493-38.491-2.703-85.971-2.703-47.481 0-85.972 1.21-85.972 2.703 0 1.492 38.49 2.702 85.972 2.702z" fill="url(#paint0_radial_1778_88418)"/></g><path d="M291.193 162.169c3.122 0 5.676-.237 7.662-.71 2.081-.567 3.737-1.277 4.967-2.128 1.229-.946 2.081-2.034 2.554-3.263.473-1.23.709-2.602.709-4.115 0-3.217-1.513-5.865-4.54-7.946-3.027-2.176-8.23-4.493-15.609-6.953a136.127 136.127 0 01-9.648-3.831c-3.216-1.514-6.102-3.358-8.656-5.534-2.554-2.27-4.635-4.966-6.243-8.088-1.608-3.216-2.412-7.094-2.412-11.635 0-4.54.851-8.608 2.554-12.203 1.703-3.689 4.115-6.81 7.237-9.365 3.121-2.553 6.905-4.493 11.351-5.817 4.446-1.419 9.459-2.128 15.04-2.128 6.622 0 12.345.709 17.169 2.128 4.825 1.419 8.798 2.98 11.919 4.682l-6.385 17.453c-2.743-1.419-5.817-2.649-9.223-3.69-3.311-1.134-7.331-1.702-12.061-1.702-5.297 0-9.128.757-11.493 2.27-2.27 1.419-3.405 3.642-3.405 6.669 0 1.798.425 3.311 1.277 4.541.851 1.23 2.034 2.365 3.547 3.405 1.608.946 3.405 1.845 5.392 2.696 2.081.757 4.351 1.561 6.811 2.412 5.108 1.892 9.554 3.784 13.338 5.676 3.783 1.797 6.905 3.926 9.364 6.385a22.988 22.988 0 015.676 8.656c1.23 3.311 1.845 7.331 1.845 12.061 0 9.175-3.217 16.317-9.649 21.425-6.432 5.014-16.128 7.521-29.088 7.521-4.351 0-8.277-.284-11.777-.852-3.5-.473-6.621-1.088-9.365-1.844-2.648-.757-4.966-1.561-6.952-2.413-1.892-.851-3.5-1.655-4.825-2.412l6.244-17.594c2.932 1.608 6.527 3.074 10.783 4.398 4.352 1.23 9.649 1.845 15.892 1.845zm47.964-76.338l21.142-3.406v21.994h25.398v17.594h-25.398v26.251c0 4.445.756 7.993 2.27 10.641 1.608 2.649 4.777 3.973 9.507 3.973 2.27 0 4.587-.189 6.952-.567 2.46-.473 4.683-1.088 6.669-1.845l2.98 16.46c-2.554 1.04-5.392 1.939-8.513 2.696-3.122.756-6.953 1.135-11.494 1.135-5.77 0-10.547-.757-14.331-2.27-3.784-1.609-6.811-3.784-9.081-6.528-2.27-2.837-3.878-6.243-4.824-10.216-.852-3.973-1.277-8.371-1.277-13.196V85.831zm83.829 78.466c2.082 0 4.068-.047 5.96-.142 1.892-.094 3.405-.236 4.54-.425v-16.034c-.851-.189-2.128-.378-3.831-.568a42.68 42.68 0 00-4.682-.283 36.36 36.36 0 00-5.676.425c-1.702.189-3.216.615-4.54 1.277-1.325.662-2.365 1.561-3.122 2.696-.757 1.135-1.135 2.554-1.135 4.257 0 3.311 1.088 5.628 3.263 6.953 2.271 1.229 5.345 1.844 9.223 1.844zm-1.702-61.865c6.243 0 11.446.71 15.608 2.129 4.162 1.419 7.473 3.452 9.932 6.101 2.554 2.649 4.352 5.865 5.392 9.649 1.041 3.783 1.561 7.993 1.561 12.628v43.987c-3.027.662-7.236 1.419-12.628 2.27-5.392.946-11.919 1.419-19.581 1.419-4.825 0-9.223-.426-13.196-1.277-3.879-.851-7.237-2.223-10.075-4.115a19.698 19.698 0 01-6.527-7.662c-1.513-3.122-2.27-6.953-2.27-11.493 0-4.352.851-8.041 2.554-11.068 1.797-3.027 4.162-5.439 7.095-7.236 2.932-1.798 6.29-3.075 10.074-3.832 3.784-.851 7.709-1.277 11.777-1.277 2.743 0 5.155.142 7.236.426 2.176.189 3.926.473 5.25.851v-1.986c0-3.595-1.087-6.48-3.263-8.656-2.176-2.175-5.96-3.263-11.351-3.263-3.595 0-7.142.284-10.642.851-3.5.473-6.527 1.183-9.081 2.129l-2.696-17.027c1.229-.379 2.743-.757 4.54-1.136a54.008 54.008 0 016.102-1.135 74.432 74.432 0 016.81-.851 64.28 64.28 0 017.379-.426zm42.389 39.304c0-5.391.851-10.452 2.554-15.182 1.797-4.824 4.351-8.987 7.662-12.487 3.311-3.594 7.331-6.432 12.061-8.513 4.73-2.081 10.122-3.122 16.176-3.122 3.973 0 7.614.379 10.925 1.135a49.587 49.587 0 019.649 2.98l-4.399 16.885c-1.986-.756-4.162-1.419-6.527-1.986-2.365-.568-5.013-.852-7.946-.852-6.243 0-10.925 1.94-14.047 5.818-3.027 3.878-4.54 8.987-4.54 15.324 0 6.717 1.418 11.919 4.256 15.609 2.933 3.689 7.994 5.533 15.183 5.533 2.554 0 5.297-.236 8.229-.709 2.933-.473 5.629-1.23 8.088-2.27l2.98 17.31c-2.459 1.041-5.534 1.94-9.223 2.696-3.689.757-7.757 1.136-12.203 1.136-6.81 0-12.675-.994-17.594-2.98-4.919-2.081-8.987-4.872-12.203-8.372-3.122-3.5-5.439-7.615-6.953-12.344-1.419-4.825-2.128-10.027-2.128-15.609zm89.959-10.358c2.081-2.27 4.21-4.635 6.386-7.094 2.27-2.46 4.446-4.872 6.527-7.237a755.29 755.29 0 005.817-6.953c1.892-2.175 3.5-4.067 4.824-5.675h25.115a950.457 950.457 0 01-14.756 16.601c-4.73 5.203-9.933 10.595-15.609 16.176 2.838 2.554 5.771 5.628 8.798 9.223 3.027 3.5 5.959 7.142 8.797 10.926a162.077 162.077 0 017.804 11.351c2.365 3.784 4.351 7.236 5.96 10.358h-24.264a221.606 221.606 0 00-5.25-8.088 135.944 135.944 0 00-6.101-8.939 103.174 103.174 0 00-6.953-8.655c-2.365-2.744-4.73-5.061-7.095-6.953v32.635h-21.141V72.351l21.141-3.405v62.432zm103.169 9.791c0-13.622-5.013-20.433-15.04-20.433a25.74 25.74 0 00-6.527.852c-2.081.567-3.784 1.277-5.108 2.128v38.453c1.04.189 2.365.378 3.973.568 1.608.094 3.358.141 5.25.141 5.77 0 10.121-1.986 13.054-5.959 2.932-3.973 4.398-9.223 4.398-15.75zm21.568.567c0 5.96-.899 11.352-2.696 16.176-1.703 4.824-4.209 8.939-7.52 12.345-3.311 3.405-7.379 6.054-12.203 7.946-4.824 1.797-10.311 2.696-16.46 2.696-2.554 0-5.249-.142-8.087-.426a121.348 121.348 0 01-8.23-.851 162.231 162.231 0 01-7.662-1.277 106.117 106.117 0 01-6.527-1.703V72.352l21.142-3.406v37.175a39.656 39.656 0 017.378-2.412c2.554-.567 5.297-.851 8.23-.851 5.297 0 9.979.946 14.047 2.838 4.068 1.797 7.473 4.398 10.216 7.804 2.744 3.405 4.825 7.52 6.244 12.344 1.418 4.73 2.128 10.028 2.128 15.892zm31.715 37.318h-21.142v-74.635h21.142v74.635zm1.986-96.203c0 3.879-1.277 6.953-3.831 9.223-2.459 2.176-5.392 3.264-8.797 3.264-3.406 0-6.385-1.088-8.939-3.264-2.46-2.27-3.689-5.344-3.689-9.223 0-3.878 1.229-6.905 3.689-9.08 2.554-2.271 5.533-3.406 8.939-3.406 3.405 0 6.338 1.135 8.797 3.405 2.554 2.176 3.831 5.203 3.831 9.081zm42.01 97.622c-6.149-.095-11.162-.757-15.041-1.986-3.784-1.23-6.811-2.933-9.081-5.109-2.176-2.27-3.689-4.966-4.54-8.087-.757-3.217-1.136-6.811-1.136-10.784V72.351l21.142-3.405v81.304c0 1.892.142 3.595.426 5.108.284 1.514.804 2.791 1.561 3.831.851 1.041 2.034 1.892 3.547 2.554 1.514.662 3.547 1.088 6.101 1.277l-2.979 17.453zm39.22 0c-6.149-.095-11.162-.757-15.041-1.986-3.783-1.23-6.81-2.933-9.081-5.109-2.175-2.27-3.689-4.966-4.54-8.087-.757-3.217-1.135-6.811-1.135-10.784V72.351l21.142-3.405v81.304c0 1.892.141 3.595.425 5.108.284 1.514.804 2.791 1.561 3.831.851 1.041 2.034 1.892 3.547 2.554 1.514.662 3.548 1.088 6.102 1.277l-2.98 17.453z" fill="#383838"/><defs><radialGradient id="paint0_radial_1778_88418" cx="0" cy="0" r="1" gradientUnits="userSpaceOnUse" gradientTransform="matrix(85.9715 0 0 2.7027 140.026 248.649)"><stop stop-color="#737373"/><stop offset="1" stop-color="#D9D9D9"/></radialGradient><filter id="filter0_f_1778_88418" x="44.054" y="235.946" width="191.943" height="25.405" filterUnits="userSpaceOnUse" color-interpolation-filters="sRGB"><feFlood flood-opacity="0" result="BackgroundImageFix"/><feBlend in="SourceGraphic" in2="BackgroundImageFix" result="shape"/><feGaussianBlur stdDeviation="5" result="effect1_foregroundBlur_1778_88418"/></filter></defs></svg>