<svg width="40" height="39" viewBox="0 0 40 39" fill="none" xmlns="http://www.w3.org/2000/svg">
<path d="M16.8372 35.6039C16.4757 35.8692 16.1375 35.8415 15.8809 35.4697C15.3692 34.7262 14.7657 34.614 14.0368 35.1446C13.9787 35.1831 13.9122 35.2071 13.8429 35.2146C13.1752 35.2992 12.9682 35.6884 13.0513 36.324C13.1173 36.6357 13.0888 36.96 12.9697 37.2555C11.5381 37.5311 10.0891 37.601 8.62834 37.308C8.30763 37.2439 8.20412 37.0791 8.20995 36.7861C8.20119 36.6249 8.20119 36.4634 8.20995 36.3022C8.29159 35.6986 8.16039 35.2525 7.45481 35.1869C7.43154 35.1838 7.40945 35.1748 7.39067 35.1607C6.56993 34.5309 5.89788 34.6927 5.32933 35.5281C5.11795 35.84 4.87887 35.7963 4.57127 35.5733C3.55036 34.8219 2.65488 33.9136 1.91808 32.8821C1.75335 32.6547 1.55216 32.3879 1.89329 32.1736C2.87293 31.5585 2.75485 30.8135 2.31168 29.9053C2.08718 29.4461 1.91078 29.2187 1.37431 29.2376C0.307201 29.2755 0.32615 29.2376 0.114768 28.1705C-0.0966131 27.1034 0.0200176 26.0159 0.176003 24.9429C0.234315 24.545 0.436949 24.3307 0.877205 24.3948C1.10772 24.4116 1.33915 24.4116 1.56966 24.3948C1.66162 24.4027 1.75422 24.3988 1.84519 24.3832C2.30148 24.2636 2.89334 22.3889 2.56534 22.0507C2.27377 21.7591 1.9414 21.504 1.60902 21.2182C2.41257 19.9362 3.46915 18.8316 4.71414 17.9717C4.96926 17.7968 5.18938 17.8522 5.39348 18.0606C5.59757 18.2691 5.83082 18.4718 6.02471 18.7021C6.24484 18.966 6.46205 18.9937 6.7434 18.81C6.81721 18.7539 6.90073 18.7119 6.98977 18.6861C8.0219 18.4513 8.59336 17.9105 8.33824 16.7632C8.2741 16.4789 8.45778 16.3813 8.73914 16.339C10.0158 16.1468 11.3136 16.1405 12.5921 16.32C13.0878 16.39 13.2248 16.5999 13.184 17.0402C13.1723 17.1772 13.2 17.3186 13.184 17.4542C13.1067 17.9849 13.251 18.3508 13.84 18.447C13.9289 18.4616 14.0003 18.5927 14.0791 18.67C13.3152 20.052 12.6329 21.4675 12.2714 23.0172C10.1299 22.1994 7.99712 23.0245 6.96353 25.0712C6.01742 26.9474 6.67197 29.1822 8.55399 30.3558C9.98264 31.245 11.4506 31.0847 12.8997 30.3558C13.7729 32.3953 15.1233 34.1951 16.8372 35.6039Z" fill="#EFEFEF"/>
<path d="M20.7338 13.6449C20.5429 12.9875 20.9598 12.8505 21.4496 12.8971C22.0823 12.9583 22.3987 12.7207 22.4701 12.0968C22.4992 11.8903 22.5617 11.6899 22.6552 11.5034C22.8433 11.1055 22.7923 10.8226 22.3855 10.5763C22.1158 10.4144 21.9117 10.1389 21.645 9.8911C22.3884 8.63593 23.1655 7.45659 24.4148 6.63147C24.5766 6.73644 24.769 6.80201 24.874 6.93613C25.4061 7.61109 25.8945 7.5105 26.6234 7.11544C27.291 6.74807 27.498 6.32823 27.3114 5.697C27.154 5.17365 27.3916 5.05557 27.7998 4.93603C29.0433 4.56866 30.3029 4.68528 31.6149 4.71298C31.7038 5.53518 31.5843 6.28743 32.7243 6.62418C33.8643 6.96093 34.1194 6.18683 34.6515 5.66639C35.8411 6.30199 36.8746 7.04841 37.6779 8.09657C37.9243 8.42021 37.933 8.64178 37.6385 8.92314C37.3922 9.1593 37.0219 9.46399 37.1093 9.76575C37.2768 10.3156 37.5447 10.8296 37.8995 11.2819C38.0802 11.5151 38.522 11.381 38.8325 11.3431C39.3923 11.2731 39.6168 11.5093 39.7071 12.0341C39.867 12.8933 39.9645 13.763 39.9987 14.6363C40.0191 15.3404 39.8223 15.7646 39.0715 15.7457C38.4666 15.7282 38.2362 16.0037 38.0438 16.5751C37.7843 17.3449 37.707 17.9294 38.5511 18.3449C38.7348 18.4353 38.9447 18.6117 38.7814 18.9076C38.2246 19.9281 37.6152 20.8844 36.5831 21.4996C35.8733 19.6618 34.806 17.983 33.443 16.5606C33.4848 16.3834 33.5433 16.2106 33.6179 16.0445C34.1179 15.1421 34.1238 14.1989 33.8701 13.2353C33.4575 11.6696 31.8569 10.4932 30.2066 10.5296C28.6176 10.5661 27.1103 11.7381 26.7546 13.2134C24.7403 12.9151 22.685 13.0624 20.7338 13.6449Z" fill="#EFEFEF"/>
<path d="M22.0957 32.1351C21.7706 32.1351 21.4636 31.9906 21.2558 31.7287L18.0952 27.8004C17.8875 27.5385 17.8063 27.2044 17.8875 26.8793L19.0163 21.9757C19.0885 21.6506 19.3053 21.3887 19.6033 21.2442L24.1728 19.0588C24.3173 18.9866 24.4798 18.9504 24.6424 18.9504C24.8049 18.9504 24.9674 18.9865 25.112 19.0588L29.6815 21.2352C29.9794 21.3796 30.1962 21.6415 30.2684 21.9667L31.3972 26.8702C31.4695 27.1953 31.3972 27.5295 31.1896 27.7914L28.0288 31.7197C27.8211 31.9725 27.5141 32.126 27.189 32.126L22.0958 32.1351H22.0957Z" fill="#A6A6A6"/>
<path d="M24.6334 19.176C24.7599 19.176 24.8863 19.2031 25.0037 19.2573L29.5732 21.4337C29.808 21.5511 29.9886 21.7678 30.0427 22.0207L31.1716 26.9243C31.2348 27.1862 31.1716 27.4571 31 27.6648L27.8393 31.5931C27.6768 31.8008 27.4239 31.9182 27.162 31.9182H22.0958C21.8339 31.9182 21.5811 31.8008 21.4185 31.5931L18.2579 27.6648C18.0953 27.4571 18.0321 27.1862 18.0863 26.9243L19.2151 22.0207C19.2783 21.7588 19.4499 21.542 19.6847 21.4337L24.2542 19.2483C24.3716 19.2032 24.5071 19.1761 24.6335 19.1761L24.6334 19.176ZM24.6334 18.7516C24.4438 18.7516 24.2542 18.7968 24.0735 18.878L19.5041 21.0635C19.1428 21.235 18.89 21.5511 18.7997 21.9394L17.6709 26.843C17.5806 27.2313 17.6709 27.6287 17.9237 27.9448L21.0844 31.8731C21.3283 32.1801 21.6985 32.3516 22.0868 32.3516H27.1529C27.5413 32.3516 27.9115 32.1801 28.1553 31.8731L31.3161 27.9447C31.5689 27.6377 31.6592 27.2313 31.5689 26.843L30.4401 21.9394C30.3498 21.5511 30.0969 21.235 29.7357 21.0635L25.1843 18.8779C25.0127 18.7968 24.8231 18.7516 24.6334 18.7516Z" fill="white"/>
<path d="M29.2117 26.536C29.2027 26.536 29.2027 26.536 29.2117 26.536H29.2027C29.1936 26.536 29.1846 26.536 29.1846 26.527C29.1666 26.527 29.1485 26.518 29.1304 26.518C29.0672 26.509 29.013 26.4999 28.9588 26.4999C28.9317 26.4999 28.9047 26.4999 28.8685 26.4909H28.8595C28.6699 26.4728 28.5163 26.4548 28.3718 26.4096C28.3086 26.3825 28.2906 26.3464 28.2725 26.3103C28.2725 26.3012 28.2635 26.3012 28.2635 26.2922L28.1461 26.2561C28.2015 25.8313 28.1801 25.4 28.0829 24.9827C27.9843 24.562 27.8131 24.1617 27.5772 23.7997L27.6675 23.7185V23.7005C27.6675 23.6553 27.6765 23.6101 27.7126 23.565C27.821 23.4656 27.9564 23.3844 28.119 23.285C28.1461 23.267 28.1731 23.258 28.2003 23.2399C28.2544 23.2128 28.2996 23.1857 28.3538 23.1496C28.3628 23.1406 28.3809 23.1315 28.399 23.1135C28.408 23.1044 28.417 23.1044 28.417 23.0954C28.5434 22.987 28.5705 22.8064 28.4802 22.689C28.435 22.6258 28.3538 22.5897 28.2725 22.5897C28.2003 22.5897 28.137 22.6168 28.0738 22.6619L28.0558 22.68C28.0378 22.689 28.0287 22.7071 28.0106 22.7161C27.9655 22.7613 27.9293 22.7973 27.8932 22.8425C27.8752 22.8606 27.8572 22.8877 27.83 22.9057C27.7036 23.0412 27.5862 23.1496 27.4688 23.2308C27.4417 23.2489 27.4147 23.258 27.3875 23.258C27.3695 23.258 27.3514 23.258 27.3333 23.2489H27.3153L27.2069 23.3212C27.0895 23.1947 26.9631 23.0864 26.8367 22.978C26.2923 22.5525 25.6372 22.2923 24.9493 22.2284L24.9402 22.111L24.9222 22.093C24.8951 22.0659 24.859 22.0388 24.8499 21.9756C24.8409 21.8311 24.859 21.6685 24.877 21.4879V21.4789C24.877 21.4518 24.886 21.4157 24.8951 21.3886C24.9041 21.3345 24.9131 21.2802 24.9222 21.217V21.1358C24.9222 20.9732 24.7957 20.8378 24.6422 20.8378C24.57 20.8378 24.4977 20.8739 24.4435 20.928C24.3894 20.9822 24.3623 21.0545 24.3623 21.1358V21.208C24.3623 21.2712 24.3713 21.3254 24.3894 21.3796C24.3984 21.4067 24.3984 21.4338 24.4074 21.4699V21.4789C24.4254 21.6595 24.4526 21.8221 24.4345 21.9666C24.4255 22.0298 24.3894 22.0569 24.3623 22.084L24.3442 22.102L24.3352 22.2194C24.1726 22.2375 24.0101 22.2555 23.8475 22.2916C23.1522 22.4452 22.5381 22.7974 22.0595 23.3031L21.9692 23.2399H21.9511C21.9331 23.2399 21.915 23.2489 21.8969 23.2489C21.8698 23.2489 21.8428 23.2399 21.8156 23.2218C21.6982 23.1406 21.5809 23.0231 21.4544 22.8877C21.4364 22.8696 21.4184 22.8425 21.3912 22.8245C21.3551 22.7793 21.319 22.7432 21.2738 22.6981C21.2648 22.689 21.2467 22.68 21.2287 22.6619C21.2197 22.6529 21.2106 22.6529 21.2106 22.6439C21.1547 22.5976 21.0845 22.5721 21.0119 22.5716C20.9306 22.5716 20.8494 22.6077 20.8042 22.6709C20.7139 22.7883 20.741 22.9689 20.8674 23.0773C20.8764 23.0773 20.8764 23.0864 20.8855 23.0864C20.9035 23.0954 20.9126 23.1134 20.9306 23.1225C20.9848 23.1585 21.03 23.1857 21.0842 23.2128C21.1113 23.2218 21.1384 23.2399 21.1655 23.258C21.328 23.3572 21.4635 23.4386 21.5718 23.5379C21.617 23.583 21.617 23.6282 21.617 23.6733V23.6914L21.7073 23.7727C21.6892 23.7997 21.6712 23.8178 21.6621 23.8449C21.2106 24.5583 21.039 25.3982 21.1564 26.229L21.039 26.2651C21.039 26.2742 21.03 26.2742 21.03 26.2831C21.0119 26.3193 20.9848 26.3554 20.9306 26.3825C20.7952 26.4277 20.6326 26.4457 20.443 26.4638H20.4339C20.4069 26.4638 20.3707 26.4638 20.3437 26.4728C20.2895 26.4728 20.2353 26.4818 20.1721 26.4909C20.1541 26.4909 20.136 26.4999 20.1179 26.4999C20.1089 26.4999 20.0999 26.4999 20.0908 26.509C19.9282 26.545 19.8289 26.6986 19.856 26.843C19.8831 26.9695 20.0005 27.0508 20.145 27.0508C20.1721 27.0508 20.1901 27.0508 20.2173 27.0417C20.2263 27.0417 20.2353 27.0417 20.2353 27.0327C20.2533 27.0327 20.2714 27.0237 20.2894 27.0237C20.3527 27.0056 20.3979 26.9876 20.452 26.9605C20.4791 26.9515 20.5062 26.9334 20.5333 26.9244H20.5423C20.7139 26.8611 20.8674 26.8069 21.0119 26.7889H21.03C21.0842 26.7889 21.1203 26.816 21.1474 26.8341C21.1564 26.8341 21.1564 26.8431 21.1654 26.8431L21.2919 26.825C21.5086 27.4933 21.924 28.0893 22.4749 28.5228C22.6013 28.6221 22.7277 28.7034 22.8632 28.7847L22.809 28.902C22.809 28.9111 22.818 28.9111 22.818 28.9201C22.8361 28.9562 22.8541 29.0014 22.8361 29.0646C22.782 29.2001 22.7006 29.3355 22.6013 29.489V29.4981C22.5833 29.5252 22.5652 29.5432 22.5472 29.5703C22.511 29.6154 22.4839 29.6606 22.4478 29.7148C22.4387 29.7238 22.4297 29.7419 22.4207 29.76C22.4207 29.769 22.4117 29.778 22.4117 29.778C22.3394 29.9315 22.3936 30.1031 22.5291 30.1663C22.5652 30.1844 22.6013 30.1934 22.6374 30.1934C22.7458 30.1934 22.8542 30.1212 22.9084 30.0218C22.9084 30.0128 22.9174 30.0038 22.9174 30.0038C22.9264 29.9857 22.9354 29.9677 22.9445 29.9586C22.9716 29.8954 22.9806 29.8502 22.9986 29.796L23.0258 29.7148C23.089 29.5342 23.1341 29.3897 23.2154 29.2633C23.2515 29.2091 23.2967 29.2001 23.3328 29.182C23.3418 29.182 23.3418 29.182 23.3508 29.1729L23.4141 29.0556C23.8114 29.2091 24.2449 29.2903 24.6783 29.2903C24.9402 29.2903 25.2112 29.2633 25.464 29.2001C25.6232 29.1645 25.78 29.1192 25.9336 29.0646L25.9877 29.1639C25.9968 29.1639 25.9968 29.1639 26.0058 29.1729C26.051 29.182 26.0871 29.2001 26.1232 29.2542C26.1955 29.3807 26.2496 29.5342 26.3128 29.7058V29.7148L26.34 29.796C26.358 29.8502 26.367 29.9044 26.3941 29.9586C26.4032 29.9766 26.4122 29.9857 26.4212 30.0038C26.4212 30.0128 26.4303 30.0218 26.4303 30.0218C26.4844 30.1302 26.5928 30.1934 26.7012 30.1934C26.7373 30.1934 26.7735 30.1844 26.8095 30.1663C26.8727 30.1302 26.9269 30.076 26.945 30.0038C26.9631 29.9315 26.9631 29.8502 26.927 29.778C26.927 29.769 26.9179 29.769 26.9179 29.76C26.9089 29.7419 26.8999 29.7239 26.8908 29.7148C26.8637 29.6606 26.8276 29.6154 26.7915 29.5703C26.7735 29.5432 26.7554 29.5252 26.7374 29.4981V29.489C26.638 29.3355 26.5476 29.2001 26.5025 29.0646C26.4845 29.0014 26.5025 28.9653 26.5115 28.9201C26.5115 28.9111 26.5206 28.9111 26.5206 28.9021L26.4754 28.7937C26.9541 28.5138 27.3604 28.1164 27.6675 27.6287C27.83 27.3759 27.9564 27.0959 28.0467 26.816L28.1551 26.834C28.1642 26.834 28.1642 26.825 28.1731 26.825C28.2093 26.8069 28.2364 26.7799 28.2906 26.7799H28.3086C28.4531 26.7979 28.6066 26.8521 28.7782 26.9153H28.7873C28.8143 26.9243 28.8414 26.9424 28.8685 26.9514C28.9227 26.9785 28.9679 26.9966 29.0311 27.0147C29.0491 27.0147 29.0672 27.0237 29.0853 27.0237C29.0943 27.0237 29.1033 27.0237 29.1123 27.0327C29.1394 27.0417 29.1575 27.0417 29.1846 27.0417C29.32 27.0417 29.4374 26.9515 29.4736 26.8341C29.4736 26.7257 29.3742 26.5812 29.2117 26.5361V26.536ZM25.0305 26.0935L24.6332 26.2832L24.2358 26.0935L24.1365 25.6691L24.4074 25.326H24.8499L25.1208 25.6691L25.0306 26.0935H25.0305ZM27.3875 25.1544C27.4576 25.453 27.4789 25.761 27.4507 26.0664L26.069 25.6691C25.9426 25.633 25.8704 25.5066 25.8975 25.3801C25.9065 25.344 25.9246 25.3079 25.9517 25.2808L27.0444 24.2964C27.1979 24.5493 27.3152 24.8383 27.3875 25.1544ZM26.6109 23.7546L25.4279 24.5945C25.3285 24.6577 25.1931 24.6396 25.1118 24.5403C25.0847 24.5132 25.0757 24.477 25.0666 24.4409L24.9854 22.9689C25.6004 23.0397 26.1733 23.3167 26.6109 23.7546ZM23.992 23.014C24.0914 22.996 24.1816 22.9779 24.281 22.9599L24.1997 24.4048C24.1907 24.5312 24.0914 24.6395 23.9559 24.6395C23.9198 24.6395 23.8746 24.6305 23.8475 24.6125L22.6465 23.7546C23.0167 23.3844 23.4773 23.1314 23.992 23.014ZM22.213 24.2964L23.2876 25.2536C23.387 25.3349 23.396 25.4884 23.3147 25.5878C23.2876 25.6238 23.2515 25.651 23.2064 25.66L21.8066 26.0664C21.7524 25.4523 21.8879 24.8292 22.213 24.2964ZM21.9691 26.7437L23.4051 26.4998C23.5224 26.4908 23.6308 26.5721 23.6579 26.6895C23.6669 26.7436 23.6669 26.7888 23.6489 26.834L23.098 28.1615C22.5923 27.8364 22.1859 27.3397 21.9691 26.7437ZM25.2653 28.5408C25.0576 28.5859 24.8499 28.613 24.6332 28.613C24.3171 28.613 24.0101 28.5589 23.7211 28.4685L24.4345 27.1772C24.5067 27.0959 24.6241 27.0598 24.7235 27.114C24.7657 27.1398 24.8024 27.1735 24.8319 27.2133L25.5272 28.4685C25.4459 28.4956 25.3556 28.5137 25.2653 28.5408H25.2653ZM27.0263 27.2855C26.8005 27.6467 26.5025 27.9357 26.1594 28.1615L25.5905 26.7978C25.5633 26.6895 25.6085 26.5721 25.7169 26.5179C25.753 26.4998 25.7981 26.4908 25.8433 26.4908L27.2882 26.7347C27.234 26.9333 27.1437 27.114 27.0263 27.2855Z" fill="white"/>
<path d="M13.8784 12.5794C12.7582 12.3861 11.717 11.8756 10.8782 11.1085C10.8782 11.0516 10.8418 10.986 10.8622 10.9627C11.7369 10.0093 11.0211 9.26287 10.5429 8.48441C10.3184 8.11996 9.95104 8.27303 9.65656 8.30218C9.15216 8.3532 8.87664 8.20596 8.81396 7.67824C8.72795 6.96975 8.62444 6.27727 8.70462 5.54983C8.76585 4.99149 8.99618 4.82094 9.486 4.87051C10.0094 4.92007 10.2951 4.732 10.4992 4.20282C10.9365 3.08177 10.9744 3.09782 10.3082 2.03071C11.005 1.12104 11.9686 0.581639 13.0882 0.157419C13.5504 0.669107 13.7603 1.36885 14.8026 1.28868C15.791 1.21287 16.0782 0.712866 16.3391 0C17.3228 0.161807 18.2499 0.568905 19.0346 1.18372C19.2926 1.37615 19.4282 1.58753 19.2139 1.87763C18.7533 2.50303 19.0259 2.94911 19.3597 3.5818C19.7591 4.34714 20.2592 4.28594 20.8744 4.25824C20.9647 4.25824 21.0551 4.25821 21.1659 4.27133C21.6033 5.2364 21.5624 6.24086 21.4779 7.25403C21.4385 7.71178 21.0697 7.69134 20.8117 7.66073C20.0828 7.57763 19.8714 8.03393 19.5886 8.58061C19.3058 9.12729 19.1163 9.56026 19.6104 10.0472C19.9618 10.3941 19.8393 10.6609 19.5099 10.9598C18.9886 11.4176 18.4128 11.8093 17.7955 12.126C17.2998 12.3928 16.9427 12.3826 16.6963 11.814C16.5053 11.3694 16.2109 11.2805 15.6758 11.279C14.6904 11.279 14.0548 11.5662 13.8784 12.5794ZM17.0855 6.31084C17.0946 5.78599 16.8961 5.27874 16.5334 4.89934C16.1706 4.51993 15.6728 4.29898 15.1481 4.28447C14.8822 4.28002 14.618 4.32848 14.371 4.42701C14.1239 4.52553 13.8989 4.67218 13.709 4.85841C13.5191 5.04464 13.3681 5.26674 13.2648 5.51182C13.1615 5.7569 13.1079 6.02006 13.1072 6.28603C13.0839 7.32398 14.0344 8.28322 15.0913 8.28905C15.6158 8.28421 16.1178 8.07497 16.4904 7.70582C16.8631 7.33667 17.0771 6.83673 17.087 6.31226L17.0855 6.31084Z" fill="#A6A6A6"/>
<path d="M33.4414 16.5606C34.8045 17.9831 35.8718 19.6619 36.5815 21.4997C37.4693 24.3103 37.5116 27.1137 36.5174 29.9127C35.8386 31.8323 34.6946 33.5538 33.1878 34.9231C33.0755 35.0266 32.9152 35.0995 32.9079 35.3007C33.4429 35.5427 34.0318 35.4596 34.5844 35.585C34.9721 35.6739 35.2579 35.8619 35.2054 36.273C35.1485 36.7191 34.803 36.8562 34.3817 36.8066C33.3263 36.6885 32.2708 36.5763 31.2168 36.448C30.7241 36.3882 30.4763 36.1039 30.5419 35.5908C30.6731 34.5368 30.8028 33.4828 30.9413 32.4303C30.9967 32.0163 31.2066 31.7014 31.6629 31.7859C32.093 31.8661 32.2213 32.2116 32.1659 32.6344C32.1017 33.1125 32.0551 33.5936 32.004 34.0586C32.2854 34.2044 32.3772 33.9799 32.4924 33.8735C36.1223 30.5512 37.0859 24.6369 34.6718 20.3378C32.4633 16.4017 29.068 14.4133 24.5692 14.3083C23.6907 14.2891 22.8141 14.3982 21.9671 14.632C21.744 14.6932 21.5224 14.7559 21.295 14.7967C20.951 14.8579 20.588 14.9279 20.397 14.5168C20.206 14.1057 20.4291 13.8622 20.7338 13.6421C22.6841 13.0578 24.7388 12.9085 26.753 13.2048C27.4916 13.361 28.2215 13.5556 28.9397 13.7879C30.6454 14.4002 32.0901 15.4046 33.4414 16.5606Z" fill="#121212"/>
<path d="M16.8372 35.6039C15.1247 34.197 13.7749 32.3998 12.9011 30.3631C11.987 27.9766 11.8325 25.5246 12.2728 23.0215C12.6343 21.4719 13.3166 20.0564 14.0805 18.6744C14.8119 17.6941 15.6359 16.7866 16.5412 15.9643C15.8823 15.8739 15.321 15.8039 14.7612 15.7165C14.3778 15.6552 14.1009 15.4687 14.1606 15.0255C14.2204 14.5823 14.5382 14.457 14.9172 14.4963C15.996 14.6056 17.0733 14.7369 18.1492 14.8695C18.6609 14.9322 18.8533 15.2515 18.7964 15.7442C18.6769 16.7763 18.5617 17.8084 18.4364 18.8391C18.3853 19.2531 18.171 19.568 17.7206 19.5155C17.2701 19.463 17.1477 19.119 17.2016 18.6919C17.2657 18.1656 17.3095 17.6364 17.3693 17.0533C16.8313 17.2487 16.5237 17.6656 16.2161 18.0315C13.06 21.7824 12.4084 25.9575 14.3531 30.4417C16.273 34.8735 21.1114 37.5121 25.9163 36.9304C26.6241 36.8347 27.3248 36.693 28.0141 36.5062C28.4515 36.394 28.8888 36.4013 28.9938 36.9552C29.0885 37.4582 28.7022 37.6171 28.3013 37.7322C24.1247 38.9203 20.3155 38.1463 16.8372 35.6039Z" fill="#121212"/>
<path d="M12.264 23.0216C11.8266 25.5246 11.9724 27.9781 12.8923 30.3631C11.4432 31.0847 9.97668 31.2494 8.54658 30.3631C6.65872 29.1896 6.01001 26.9547 6.95612 25.0785C7.99553 23.0289 10.1283 22.2037 12.264 23.0216Z" fill="white"/>
<path d="M33.4414 16.5606C32.0885 15.4031 30.6453 14.4001 28.9455 13.7995C28.2272 13.5672 27.4973 13.3726 26.7588 13.2164C27.1145 11.7411 28.6219 10.569 30.2109 10.5326C31.8611 10.4961 33.4618 11.6725 33.8743 13.2382C34.128 14.2018 34.1222 15.145 33.6221 16.0474C33.5457 16.2123 33.4852 16.3842 33.4414 16.5606Z" fill="white"/>
<path d="M17.0867 6.31213C17.0772 6.83636 16.8638 7.33625 16.4917 7.70562C16.1196 8.075 15.6181 8.28478 15.0939 8.29038C14.037 8.29038 13.0865 7.32532 13.1098 6.28736C13.1105 6.02139 13.1641 5.75824 13.2674 5.51315C13.3707 5.26807 13.5217 5.04597 13.7116 4.85974C13.9015 4.67351 14.1265 4.52687 14.3736 4.42834C14.6206 4.32982 14.8848 4.28136 15.1507 4.2858C15.6752 4.30069 16.1726 4.5218 16.5351 4.90117C16.8975 5.28054 17.0957 5.78754 17.0867 6.31213Z" fill="white"/>
</svg>
