<svg width="17" height="16" viewBox="0 0 17 16" fill="none" xmlns="http://www.w3.org/2000/svg">
<rect width="16" height="16" transform="translate(0.25)" fill="white" fill-opacity="0.01" style="mix-blend-mode:multiply"/>
<rect x="4.25" y="3" width="8" height="10" fill="white"/>
<rect width="16" height="16" transform="translate(0.25)" fill="white" fill-opacity="0.01" style="mix-blend-mode:multiply"/>
<path d="M8.25 1C4.4 1 1.25 4.15 1.25 8C1.25 11.85 4.4 15 8.25 15C12.1 15 15.25 11.85 15.25 8C15.25 4.15 12.1 1 8.25 1ZM7.7 4H8.8V9.5H7.7V4ZM8.25 12.5C7.85 12.5 7.5 12.15 7.5 11.75C7.5 11.35 7.85 11 8.25 11C8.65 11 9 11.35 9 11.75C9 12.15 8.65 12.5 8.25 12.5Z" fill="#DA1E28"/>
</svg>
