<svg width="41" height="36" viewBox="0 0 41 36" fill="none" xmlns="http://www.w3.org/2000/svg">
<path d="M28.7453 5.33264C30.6547 6.43482 32.5589 7.54735 34.4787 8.63142C34.9367 8.89015 35.1669 9.16698 35.1566 9.74911C35.11 12.1087 35.1359 14.4658 35.1359 16.8253C34.7478 16.8253 34.3597 16.8564 33.9716 16.8616C33.3946 16.8616 32.8203 16.8616 32.2459 16.8616C31.8604 16.8745 31.5525 17.0064 31.5577 17.4799C31.5629 17.9534 31.8604 18.031 32.2226 18.0543C32.427 18.0543 32.6314 18.0543 32.8358 18.0543L35.1126 18.0957C35.1126 20.6028 35.1126 23.1072 35.1437 25.5988C35.1437 25.9377 34.9315 26.0516 34.7116 26.1783C33.1903 27.0632 31.6672 27.9455 30.1424 28.8252L28.7453 29.6272C28.1554 28.9157 27.7104 28.1033 27.193 27.3478C26.9679 27.0244 26.6755 26.7657 26.2667 27.0503C25.8579 27.3349 25.9303 27.6428 26.1761 28.0102C26.6936 28.7579 27.1541 29.5263 27.6405 30.2869C25.8915 31.2856 24.1244 32.2559 22.3935 33.2882C20.51 34.4111 20.5385 34.4111 18.6498 33.2882C16.9189 32.2533 15.1517 31.2856 13.4027 30.2895C13.9012 29.5168 14.4014 28.7406 14.9034 27.961C15.144 27.5884 15.131 27.2443 14.7326 27.0141C14.3342 26.7838 14.078 27.0141 13.8581 27.3401C13.3406 28.093 12.8956 28.9079 12.3057 29.6168C10.3161 28.4681 8.33166 27.3142 6.33686 26.1783C6.19087 26.1037 6.07136 25.986 5.99454 25.8411C5.91771 25.6962 5.8873 25.5313 5.9074 25.3685C5.92292 22.9391 5.9074 20.507 5.9074 18.075C6.88022 17.9327 7.85819 18.0439 8.8336 18.0103C9.25015 17.9948 9.5244 17.837 9.48301 17.379C9.4442 16.9625 9.17772 16.8616 8.78186 16.8616C7.82457 16.8616 6.86728 16.8072 5.9074 16.7762C5.9074 14.3415 5.9074 11.9095 5.9074 9.47747C5.88872 9.33263 5.91522 9.18555 5.98329 9.05634C6.05137 8.92714 6.15769 8.8221 6.28772 8.75561C8.30062 7.60686 10.3006 6.4426 12.3057 5.2835C12.893 5.97172 13.3148 6.77118 13.8322 7.50855C14.0754 7.85266 14.3497 8.14502 14.7766 7.85524C15.2035 7.56546 15.0948 7.211 14.8516 6.8436C14.3626 6.10882 13.8892 5.36369 13.4079 4.62114L18.6601 1.63023C19.1775 1.32752 19.726 1.03259 20.2461 0.711764C20.3374 0.651654 20.4455 0.62204 20.5547 0.627153C20.664 0.632266 20.7688 0.67184 20.8541 0.74022C23.0602 2.02351 25.2714 3.29991 27.4879 4.56941C27.538 4.59356 27.5911 4.61095 27.6457 4.62114C27.1567 5.37921 26.6703 6.13988 26.1787 6.89278C25.9769 7.20067 25.889 7.49561 26.1787 7.79056C26.4685 8.08551 26.867 8.02082 27.1878 7.5577C27.7182 6.85396 28.1502 6.03638 28.7453 5.33264ZM29.8837 18.0543V17.9353C30.0648 17.1591 29.8837 16.3985 29.7828 15.6326C29.7311 15.1695 29.5965 14.8978 29.0221 15.0143C28.0881 15.2031 27.5448 14.8926 27.0274 13.9431C26.4685 12.9082 26.2822 12.1605 27.0791 11.2756C27.2913 11.0402 27.2162 10.8332 26.986 10.6107C26.0586 9.75245 24.9661 9.09219 23.7751 8.67024C23.2577 8.47102 22.8748 8.4115 22.66 9.05056C22.3496 9.96905 21.7338 10.383 20.7506 10.1372H20.5203C20.2615 10.1112 20.0004 10.1208 19.7442 10.1657C19.3535 10.2925 19.1776 10.1657 19.012 9.82157C18.7843 9.35844 18.4945 8.92637 18.2358 8.47101C16.567 8.94449 15.1104 9.69479 13.9306 10.9496C14.019 11.1776 14.1317 11.3953 14.2669 11.599C14.862 12.3054 14.7093 12.8383 14.2669 13.6688C13.6873 14.7762 13.0612 15.2782 11.853 15.0479C11.6951 15.0194 11.4778 15.0091 11.4235 15.2109C11.1854 16.1035 10.9888 17.0013 11.1647 17.9327V18.0465C11.143 18.5271 11.1865 19.0084 11.2941 19.4773C11.3484 19.8085 11.483 19.9948 11.8736 19.9637C12.2643 19.9327 12.6162 19.9637 12.9836 19.9637C13.1211 19.9414 13.262 19.9704 13.3794 20.0454C13.4968 20.1203 13.5824 20.2358 13.6201 20.3699C13.819 20.9095 14.1048 21.4129 14.4661 21.8602C14.5383 21.9257 14.596 22.0055 14.6355 22.0947C14.675 22.1838 14.6954 22.2802 14.6954 22.3776C14.6954 22.4751 14.675 22.5715 14.6355 22.6606C14.596 22.7497 14.5383 22.8296 14.4661 22.8951C14.2558 23.1996 14.069 23.5196 13.9072 23.8524C13.8796 23.8887 13.8597 23.9302 13.8486 23.9744C13.8376 24.0186 13.8356 24.0646 13.8428 24.1097C13.8501 24.1547 13.8664 24.1977 13.8909 24.2362C13.9153 24.2747 13.9473 24.3079 13.9849 24.3336C14.8295 25.1426 15.8245 25.7782 16.9137 26.2042C18.0081 26.6311 18.0314 26.6208 18.6109 25.5703C18.8929 25.0529 19.1568 24.626 19.8606 24.8614C20.0801 24.8951 20.3034 24.8951 20.5229 24.8614H20.6471C20.8484 24.8952 21.0539 24.8952 21.2551 24.8614C21.6872 24.7062 21.8916 24.8614 22.0727 25.2495C22.2875 25.6971 22.5669 26.1137 22.8204 26.5432C24.4918 26.0567 25.9588 25.322 27.1283 24.0413C27.0383 23.8304 26.9301 23.6278 26.8049 23.4358C26.2667 22.7476 26.2693 22.2172 26.7583 21.366C27.374 20.2897 27.9743 19.7128 29.2188 19.9663C29.4775 20.0181 29.6224 19.9094 29.6819 19.6196C29.7802 19.0814 29.9432 18.5847 29.8837 18.0543Z" fill="#EFEFEF"/>
<path d="M27.6405 30.3165C27.1541 29.5559 26.6806 28.7875 26.1761 28.0398C25.9303 27.6724 25.8811 27.349 26.2666 27.0799C26.6521 26.8108 26.9678 27.054 27.1929 27.3774C27.7104 28.1329 28.1554 28.9453 28.7453 29.6568C29.2886 30.4977 29.8371 31.3334 30.3752 32.1794C30.4259 32.2692 30.5022 32.3417 30.5944 32.3878C30.6866 32.4339 30.7905 32.4514 30.8927 32.4381C32.7038 32.4381 34.5356 32.4381 36.3544 32.4381C36.6572 32.4381 36.7684 32.2984 36.8952 32.0707C37.0991 31.702 37.4179 31.4101 37.803 31.2393C38.1881 31.0685 38.6185 31.0282 39.0287 31.1246C39.4388 31.2209 39.8062 31.4487 40.075 31.7732C40.3437 32.0976 40.4991 32.501 40.5174 32.9219C40.5467 33.3557 40.4288 33.7867 40.1829 34.1452C39.937 34.5037 39.5774 34.7689 39.1622 34.8978C38.747 35.0267 38.3005 35.0119 37.8948 34.8557C37.4891 34.6995 37.1478 34.4111 36.9263 34.037C36.8702 33.9143 36.7765 33.8126 36.6589 33.7466C36.5412 33.6805 36.4056 33.6536 36.2717 33.6697C34.3752 33.6697 32.4813 33.6697 30.5796 33.6878C30.3496 33.7052 30.1195 33.655 29.9177 33.5432C29.7159 33.4315 29.5512 33.2632 29.4438 33.0591C28.8591 32.1328 28.2433 31.2298 27.6405 30.3165ZM39.2677 33.0746C39.2765 32.931 39.2415 32.7882 39.1675 32.6649C39.0934 32.5416 38.9837 32.4436 38.8528 32.3839C38.722 32.3242 38.5761 32.3056 38.4344 32.3305C38.2928 32.3553 38.162 32.4226 38.0593 32.5233C37.9566 32.624 37.8869 32.7535 37.8593 32.8947C37.8317 33.0359 37.8475 33.1821 37.9047 33.3141C37.9618 33.446 38.0577 33.5576 38.1796 33.634C38.3014 33.7104 38.4436 33.7481 38.5873 33.7421C38.7659 33.7435 38.9378 33.674 39.0654 33.5489C39.1929 33.4238 39.2657 33.2532 39.2677 33.0746Z" fill="#121212"/>
<path d="M13.4024 4.66991C13.8836 5.41246 14.3571 6.15762 14.8461 6.8924C15.0893 7.2598 15.1928 7.62458 14.7711 7.90401C14.3494 8.18343 14.0699 7.90402 13.8267 7.55732C13.3093 6.81995 12.8875 6.02048 12.3002 5.33227C11.7595 4.4914 11.211 3.65312 10.6754 2.80708C10.6247 2.71732 10.5484 2.64473 10.4562 2.59863C10.364 2.55253 10.2602 2.53503 10.1579 2.54835C8.34684 2.54835 6.51505 2.54835 4.6962 2.54835C4.57861 2.54324 4.4624 2.57522 4.36398 2.63975C4.26555 2.70428 4.18989 2.79811 4.14769 2.90799C3.93402 3.29182 3.59612 3.59152 3.18953 3.75785C2.78294 3.92418 2.33185 3.94722 1.91042 3.8232C1.48899 3.69918 1.1223 3.43549 0.87061 3.07544C0.618924 2.71539 0.497213 2.28041 0.525503 1.84203C0.549248 1.40464 0.719714 0.988006 1.00935 0.659402C1.299 0.330798 1.69092 0.109401 2.12187 0.0309317C2.49893 -0.0382051 2.88809 0.00918276 3.23754 0.166802C3.58698 0.324421 3.88009 0.584796 4.07783 0.913203C4.15222 1.0572 4.26982 1.17427 4.41413 1.24805C4.55843 1.32182 4.72219 1.34859 4.88247 1.32457C6.69357 1.32457 8.5228 1.32456 10.3442 1.30903C10.5998 1.28112 10.8578 1.32998 11.0854 1.44932C11.313 1.56867 11.5 1.75313 11.6223 1.97916C12.1864 2.89506 12.8099 3.77471 13.4024 4.66991ZM2.48924 1.23402C2.0908 1.28836 1.79585 1.49273 1.78292 1.92481C1.7723 2.01719 1.78143 2.11078 1.80967 2.19939C1.8379 2.28799 1.88462 2.36961 1.94674 2.43882C2.00885 2.50803 2.08495 2.56326 2.17 2.60087C2.25505 2.63849 2.3471 2.65764 2.4401 2.65703C2.53672 2.66658 2.63428 2.65551 2.7263 2.62453C2.81833 2.59355 2.9027 2.54336 2.97388 2.47732C3.04506 2.41128 3.10142 2.33088 3.13919 2.24143C3.17696 2.15198 3.19531 2.05551 3.193 1.95844C3.19308 1.76984 3.1196 1.58865 2.98819 1.45337C2.85677 1.31809 2.67776 1.23941 2.48924 1.23402Z" fill="#121212"/>
<path d="M12.2998 29.6581C12.8949 28.9492 13.3348 28.1342 13.8522 27.3813C14.0721 27.0682 14.3309 26.825 14.7267 27.0553C15.1226 27.2856 15.1381 27.6297 14.8975 28.0023C14.3955 28.7733 13.8953 29.5494 13.3968 30.3308C12.8147 31.2105 12.2067 32.0798 11.6582 32.9802C11.5371 33.2174 11.3476 33.4128 11.1142 33.541C10.8807 33.6692 10.6142 33.7244 10.349 33.6995C8.51205 33.6632 6.67251 33.6994 4.83296 33.6813C4.6898 33.6602 4.54361 33.6845 4.41502 33.7509C4.28643 33.8173 4.18193 33.9224 4.11627 34.0513C3.87164 34.4496 3.49741 34.7516 3.05644 34.9066C2.61547 35.0616 2.13462 35.0602 1.69458 34.9025C1.10727 34.7137 0.525133 33.7797 0.530308 33.0294C0.531886 32.6018 0.675196 32.1868 0.937823 31.8494C1.20045 31.512 1.56757 31.2711 1.98167 31.1647C2.39578 31.0582 2.83351 31.092 3.22633 31.2609C3.61914 31.4298 3.94486 31.7241 4.1525 32.0979C4.20281 32.2138 4.28913 32.3103 4.39866 32.3732C4.50818 32.4362 4.63507 32.4621 4.7605 32.4472C6.52503 32.4351 8.28871 32.4351 10.0515 32.4472C10.1865 32.464 10.3233 32.4394 10.444 32.3765C10.5646 32.3137 10.6632 32.2156 10.7268 32.0953C11.2339 31.2596 11.7746 30.4654 12.2998 29.6581ZM3.20037 33.006C3.19771 32.9134 3.17665 32.8222 3.1384 32.7378C3.10015 32.6533 3.04549 32.5774 2.97758 32.5143C2.90967 32.4512 2.8299 32.4022 2.74289 32.3703C2.65588 32.3383 2.56337 32.324 2.47077 32.3282C2.37374 32.3273 2.27761 32.3469 2.1887 32.3858C2.09979 32.4246 2.02013 32.4819 1.95489 32.5537C1.88966 32.6255 1.84032 32.7103 1.81018 32.8026C1.78003 32.8948 1.76973 32.9924 1.77995 33.0889C1.78104 33.1822 1.80186 33.2742 1.841 33.3589C1.88014 33.4436 1.93674 33.5191 2.0071 33.5804C2.07745 33.6418 2.15997 33.6875 2.24924 33.7147C2.33852 33.7419 2.4325 33.7499 2.52509 33.7383C2.9494 33.7176 3.16673 33.4304 3.20037 33.006Z" fill="#121212"/>
<path d="M28.7447 5.33244C28.1496 6.03618 27.7098 6.85377 27.1923 7.60667C26.8715 8.06979 26.5015 8.15256 26.1833 7.8395C25.865 7.52644 25.9711 7.24961 26.1833 6.94172C26.6749 6.18882 27.1612 5.42816 27.6502 4.67008C28.2324 3.78782 28.8352 2.92108 29.3889 2.02071C29.5094 1.78633 29.6965 1.5928 29.9267 1.46438C30.1568 1.33595 30.4198 1.27837 30.6826 1.29888C32.5376 1.33769 34.3953 1.29887 36.2504 1.31698C36.3845 1.33643 36.5213 1.31224 36.6406 1.24794C36.7598 1.18364 36.8552 1.08265 36.9127 0.959933C37.129 0.589493 37.4626 0.301778 37.8608 0.142312C38.259 -0.0171542 38.699 -0.0392537 39.1111 0.079525C39.5233 0.198304 39.8841 0.451154 40.1363 0.79807C40.3886 1.14499 40.5179 1.56614 40.5039 1.99484C40.5024 2.42391 40.3586 2.84036 40.095 3.17889C39.8314 3.51743 39.4628 3.75889 39.0472 3.86544C38.6316 3.97503 38.191 3.93996 37.7979 3.76599C37.4048 3.59202 37.0826 3.28951 36.8843 2.90816C36.834 2.792 36.7471 2.69549 36.6369 2.63336C36.5266 2.57122 36.3991 2.54688 36.2737 2.56407C34.5091 2.57441 32.7463 2.57441 30.9852 2.56407C30.85 2.54781 30.713 2.57268 30.592 2.63544C30.4711 2.69821 30.3719 2.79595 30.3074 2.91593C29.808 3.72834 29.2699 4.52521 28.7447 5.33244ZM39.2671 1.99484C39.2714 1.89727 39.2556 1.79988 39.2209 1.70861C39.1861 1.61734 39.1331 1.53415 39.065 1.46412C38.9969 1.3941 38.9152 1.33872 38.8249 1.30141C38.7347 1.26409 38.6378 1.24561 38.5401 1.24712C38.4461 1.24569 38.3529 1.26398 38.2664 1.30081C38.1799 1.33764 38.1021 1.39219 38.038 1.46093C37.9739 1.52968 37.9249 1.61111 37.8942 1.69995C37.8634 1.7888 37.8517 1.88308 37.8597 1.97675C37.8544 2.07086 37.8699 2.16498 37.905 2.25247C37.9401 2.33995 37.9939 2.41866 38.0628 2.48305C38.1316 2.54745 38.2137 2.59595 38.3034 2.62515C38.393 2.65434 38.4879 2.66353 38.5815 2.65202C38.6702 2.65587 38.7587 2.6417 38.8417 2.6104C38.9248 2.5791 39.0006 2.5313 39.0647 2.46988C39.1288 2.40847 39.1798 2.33474 39.2145 2.2531C39.2493 2.17145 39.2672 2.08359 39.2671 1.99484Z" fill="#121212"/>
<path d="M35.1126 18.1133L32.8358 18.0719C32.6314 18.0719 32.427 18.0719 32.2226 18.0719C31.8604 18.0486 31.5629 17.9477 31.5577 17.4975C31.5525 17.0473 31.8604 16.8921 32.2459 16.8792C32.8203 16.8585 33.3946 16.8792 33.9716 16.8792C34.3597 16.8792 34.7478 16.8559 35.1359 16.8429L35.8034 16.8585C36.3208 16.8792 36.7426 16.8843 37.097 16.2996C37.5498 15.5467 38.5407 15.376 39.3273 15.7071C39.7036 15.8695 40.0195 16.1456 40.2308 16.4968C40.4421 16.8479 40.5381 17.2565 40.5052 17.665C40.4724 18.0735 40.3124 18.4614 40.0478 18.7743C39.7831 19.0872 39.4271 19.3094 39.0297 19.4095C38.6315 19.5118 38.2106 19.4803 37.8319 19.3199C37.4533 19.1596 37.1378 18.8793 36.934 18.5221C36.8769 18.3882 36.7772 18.277 36.6505 18.2054C36.5238 18.1339 36.377 18.106 36.2329 18.1262C35.8577 18.1392 35.4852 18.1133 35.1126 18.1133ZM38.6365 16.7912C38.5301 16.7816 38.4229 16.7958 38.3228 16.8329C38.2226 16.8701 38.132 16.9291 38.0576 17.0057C37.9832 17.0824 37.9269 17.1746 37.8927 17.2759C37.8586 17.3771 37.8475 17.4846 37.8603 17.5907C37.8862 18.0072 38.194 18.1806 38.5692 18.1858C38.6627 18.1965 38.7573 18.1863 38.8463 18.1559C38.9354 18.1255 39.0165 18.0757 39.0839 18.01C39.1513 17.9444 39.2032 17.8646 39.2359 17.7764C39.2686 17.6882 39.2812 17.5938 39.2729 17.5001C39.2804 17.4112 39.2695 17.3217 39.2411 17.2371C39.2127 17.1526 39.1673 17.0747 39.1077 17.0083C39.0481 16.9419 38.9755 16.8884 38.8945 16.8511C38.8135 16.8137 38.7257 16.7934 38.6365 16.7912Z" fill="#121212"/>
<path d="M5.91006 16.8248C6.86994 16.8558 7.82723 16.9101 8.78453 16.9101C9.18038 16.9101 9.44686 17.0033 9.48567 17.4276C9.52707 17.8856 9.25281 18.0434 8.83626 18.0589C7.86086 18.0925 6.88288 17.9813 5.91006 18.1236C5.72637 18.1236 5.54008 18.1236 5.35379 18.1236C4.77683 18.0951 4.31887 18.108 3.92561 18.7445C3.47283 19.4974 2.50001 19.6371 1.69019 19.2878C1.31546 19.1208 1.00283 18.84 0.796679 18.4852C0.590528 18.1305 0.501338 17.7198 0.54171 17.3115C0.582082 16.9032 0.749981 16.518 1.02161 16.2105C1.29325 15.903 1.65481 15.6889 2.05501 15.5984C2.45214 15.5022 2.8699 15.5392 3.24392 15.7038C3.61794 15.8683 3.92747 16.1513 4.12483 16.5091C4.17233 16.6269 4.25821 16.7253 4.36856 16.7882C4.47891 16.8511 4.60726 16.8749 4.73284 16.8558C5.13128 16.8196 5.52197 16.83 5.91006 16.8248ZM2.50001 18.1986C2.94761 18.152 3.20635 17.9088 3.18824 17.4716C3.17299 17.2916 3.08913 17.1244 2.95402 17.0045C2.81891 16.8847 2.6429 16.8214 2.4624 16.8277C2.2819 16.834 2.11073 16.9095 1.98433 17.0385C1.85793 17.1675 1.78596 17.3402 1.78333 17.5207C1.79368 17.9683 2.08346 18.1753 2.50001 18.1986Z" fill="#121212"/>
<path d="M11.1592 17.937C10.9936 17.0056 11.1902 16.1078 11.4179 15.2152C11.4722 15.0134 11.6896 15.0237 11.8474 15.0522C13.0557 15.2825 13.6818 14.7935 14.2613 13.6732C14.696 12.8427 14.8486 12.3097 14.2613 11.6034C14.1262 11.3996 14.0134 11.1819 13.925 10.9539C15.1048 9.69911 16.5614 8.94881 18.2302 8.47534C18.489 8.9307 18.7813 9.36277 19.0064 9.82589C19.172 10.17 19.3479 10.2968 19.7386 10.17C19.9948 10.1251 20.256 10.1155 20.5148 10.1415C20.5148 11.4214 20.5148 12.7021 20.5148 13.9836C20.2405 14.0224 19.9611 14.038 19.6946 14.1027C18.3622 14.4313 16.9418 15.6318 17.0297 17.8232C15.0763 17.774 13.1177 17.9086 11.1592 17.937Z" fill="#A6A6A6"/>
<path d="M20.748 10.1362C21.7312 10.3949 22.347 9.96801 22.6575 9.04953C22.8722 8.42082 23.2525 8.46998 23.7726 8.6692C24.9636 9.09116 26.0561 9.75142 26.9834 10.6097C27.2137 10.8322 27.2887 11.0391 27.0765 11.2746C26.2796 12.1594 26.4659 12.9123 27.0248 13.9421C27.5422 14.8916 28.0856 15.2021 29.0196 15.0132C29.5939 14.8968 29.7285 15.1685 29.7803 15.6316C29.8682 16.4078 30.0622 17.1581 29.8811 17.9342C27.9251 17.8825 25.9692 17.7894 24.0106 17.823C24.1322 15.704 22.6756 14.1387 20.7506 13.986C20.7506 12.7028 20.7498 11.4195 20.748 10.1362Z" fill="#A6A6A6"/>
<path d="M20.5179 24.8449C20.2984 24.8787 20.0751 24.8787 19.8556 24.8449C19.1518 24.6095 18.8879 25.0442 18.6059 25.5539C18.0264 26.6043 18.0031 26.6146 16.9087 26.1877C15.8195 25.7617 14.8244 25.1262 13.9799 24.3171C13.9422 24.2914 13.9103 24.2582 13.8858 24.2197C13.8614 24.1812 13.8451 24.1382 13.8378 24.0932C13.8306 24.0482 13.8325 24.0021 13.8436 23.9579C13.8547 23.9137 13.8747 23.8722 13.9023 23.8359C14.064 23.5031 14.2508 23.183 14.4611 22.8786C14.5333 22.8131 14.591 22.7333 14.6305 22.6441C14.67 22.555 14.6904 22.4586 14.6904 22.3611C14.6904 22.2637 14.67 22.1673 14.6305 22.0781C14.591 21.989 14.5333 21.9092 14.4611 21.8437C14.0997 21.3964 13.814 20.893 13.615 20.3534C13.5774 20.2193 13.4918 20.1038 13.3744 20.0289C13.257 19.9539 13.1161 19.9249 12.9786 19.9472C12.6112 19.9705 12.236 19.9239 11.8686 19.9472C11.5012 19.9705 11.3512 19.792 11.2891 19.4608C11.1815 18.9919 11.138 18.5106 11.1597 18.03H17.0561C17.5374 19.8955 18.5697 20.7751 20.5257 20.9795C20.5188 22.2749 20.5162 23.5634 20.5179 24.8449Z" fill="#A6A6A6"/>
<path d="M29.8834 18.0534C29.9429 18.5709 29.7799 19.0883 29.6764 19.5876C29.6169 19.8774 29.4642 19.9861 29.2133 19.9343C27.9688 19.6756 27.3685 20.2577 26.7528 21.3341C26.2638 22.1879 26.2612 22.7182 26.7994 23.4039C26.9246 23.5959 27.0328 23.7984 27.1228 24.0093C25.9533 25.3029 24.4863 26.0248 22.8149 26.5112C22.5562 26.0765 22.282 25.66 22.0672 25.2176C21.8861 24.8398 21.6817 24.6742 21.2496 24.8295C21.0484 24.8633 20.8429 24.8633 20.6416 24.8295C20.5536 23.5358 20.7788 22.2758 20.7503 20.9951C22.5045 20.7545 23.573 19.761 23.987 18.0482L29.8834 18.0534Z" fill="#A6A6A6"/>
<path d="M29.8827 18.0533H23.9863L24.0096 17.8231C25.9682 17.7894 27.9241 17.8826 29.8801 17.9343C29.8801 17.9757 29.8827 18.0145 29.8827 18.0533Z" fill="#A6A6A6"/>
<path d="M17.0507 18.0543H11.1543C11.1543 18.0155 11.1543 17.9793 11.1543 17.9404C13.1129 17.912 15.0714 17.7775 17.03 17.8266L17.0507 18.0543Z" fill="#A6A6A6"/>
<path d="M20.7478 10.1368C20.7478 11.4201 20.7478 12.7034 20.7478 13.9867H20.5176C20.5176 12.7051 20.5176 11.4245 20.5176 10.1446L20.7478 10.1368Z" fill="#A6A6A6"/>
<path d="M20.7504 21.0009C20.7789 22.2946 20.5538 23.5546 20.6418 24.8353H20.5176C20.5176 23.5537 20.5176 22.273 20.5176 20.9932L20.7504 21.0009Z" fill="#A6A6A6"/>
<path d="M39.2672 33.0745C39.2652 33.2531 39.1924 33.4237 39.0649 33.5488C38.9373 33.6739 38.7654 33.7434 38.5868 33.742C38.4438 33.7475 38.3024 33.7096 38.1814 33.6333C38.0603 33.5569 37.9652 33.4458 37.9085 33.3144C37.8519 33.1829 37.8363 33.0374 37.8639 32.897C37.8915 32.7566 37.9609 32.6278 38.0631 32.5276C38.1652 32.4273 38.2953 32.3604 38.4363 32.3355C38.5772 32.3106 38.7224 32.329 38.8527 32.3882C38.983 32.4473 39.0923 32.5446 39.1663 32.6671C39.2403 32.7896 39.2755 32.9316 39.2672 33.0745Z" fill="white"/>
<path d="M2.48894 1.23291C2.67746 1.2383 2.85647 1.31698 2.98789 1.45225C3.1193 1.58753 3.19278 1.76873 3.1927 1.95733C3.195 2.0544 3.17665 2.15086 3.13888 2.24031C3.10111 2.32976 3.04476 2.41016 2.97358 2.47621C2.9024 2.54225 2.81802 2.59244 2.726 2.62342C2.63398 2.65439 2.53642 2.66547 2.43979 2.65591C2.3468 2.65652 2.25475 2.63737 2.1697 2.59976C2.08465 2.56215 2.00855 2.50692 1.94644 2.43771C1.88432 2.3685 1.8376 2.28688 1.80937 2.19828C1.78113 2.10967 1.772 2.01608 1.78261 1.92369C1.79555 1.48127 2.08273 1.28724 2.48894 1.23291Z" fill="white"/>
<path d="M3.20061 33.0054C3.16697 33.4297 2.94188 33.7169 2.52533 33.7376C2.43274 33.7492 2.33876 33.7412 2.24949 33.714C2.16022 33.6868 2.07769 33.6411 2.00734 33.5798C1.93699 33.5184 1.88039 33.4429 1.84124 33.3582C1.8021 33.2735 1.78128 33.1815 1.78019 33.0882C1.76998 32.9917 1.78027 32.8941 1.81042 32.8019C1.84056 32.7096 1.8899 32.6248 1.95513 32.553C2.02037 32.4812 2.10003 32.4239 2.18894 32.3851C2.27785 32.3462 2.37398 32.3266 2.47101 32.3275C2.56361 32.3233 2.65612 32.3376 2.74313 32.3696C2.83014 32.4015 2.90992 32.4505 2.97782 32.5136C3.04573 32.5767 3.10039 32.6527 3.13864 32.7371C3.17689 32.8215 3.19796 32.9127 3.20061 33.0054Z" fill="white"/>
<path d="M39.2673 1.99513C39.2674 2.08388 39.2495 2.17174 39.2147 2.25338C39.1799 2.33503 39.129 2.40876 39.0649 2.47017C39.0008 2.53158 38.925 2.57938 38.8419 2.61068C38.7589 2.64198 38.6703 2.65615 38.5817 2.65231C38.4881 2.66381 38.3932 2.65462 38.3036 2.62543C38.2139 2.59624 38.1318 2.54773 38.063 2.48334C37.9941 2.41894 37.9403 2.34024 37.9052 2.25275C37.8701 2.16526 37.8546 2.07115 37.8598 1.97703C37.8519 1.88337 37.8636 1.78908 37.8943 1.70024C37.925 1.61139 37.974 1.52996 38.0382 1.46122C38.1023 1.39247 38.1801 1.33792 38.2666 1.30109C38.3531 1.26426 38.4463 1.24598 38.5403 1.2474C38.638 1.2459 38.7349 1.26438 38.8251 1.30169C38.9154 1.339 38.9971 1.39438 39.0651 1.46441C39.1332 1.53443 39.1863 1.61762 39.221 1.70889C39.2558 1.80016 39.2716 1.89755 39.2673 1.99513Z" fill="white"/>
<path d="M38.6359 16.7905C38.7244 16.7937 38.8113 16.8148 38.8915 16.8526C38.9716 16.8904 39.0432 16.9441 39.102 17.0104C39.1608 17.0766 39.2055 17.1542 39.2335 17.2382C39.2614 17.3223 39.272 17.4112 39.2646 17.4995C39.2729 17.5932 39.2602 17.6875 39.2275 17.7757C39.1948 17.8639 39.1429 17.9437 39.0755 18.0094C39.0081 18.075 38.927 18.1248 38.838 18.1552C38.7489 18.1856 38.6543 18.1958 38.5608 18.1851C38.1857 18.1851 37.8778 18.0066 37.8519 17.59C37.8389 17.4833 37.8502 17.3749 37.8847 17.2731C37.9193 17.1713 37.9764 17.0786 38.0516 17.0018C38.1269 16.925 38.2186 16.8661 38.3197 16.8295C38.4208 16.793 38.5289 16.7797 38.6359 16.7905Z" fill="white"/>
<path d="M2.49988 18.1989C2.07557 18.1756 1.79355 17.9686 1.7832 17.521C1.78584 17.3404 1.8578 17.1677 1.9842 17.0387C2.1106 16.9097 2.28177 16.8343 2.46227 16.8279C2.64277 16.8216 2.81878 16.885 2.95389 17.0048C3.089 17.1247 3.17286 17.2919 3.18811 17.4719C3.20622 17.9091 2.94748 18.1523 2.49988 18.1989Z" fill="white"/>
<path d="M20.7505 21.0006H20.5202C18.5642 20.7962 17.5319 19.9165 17.0506 18.0511L17.0351 17.8208C16.9472 15.6294 18.3676 14.4289 19.7 14.1003C19.9587 14.0356 20.2459 14.0201 20.5202 13.9813H20.7505C22.6754 14.134 24.132 15.6993 24.0104 17.8182L23.9872 18.0485C23.5732 19.7665 22.5046 20.76 20.7505 21.0006Z" fill="white"/>
</svg>
