 <svg xmlns="http://www.w3.org/2000/svg"
              width="20"
              height="20"
              viewBox="0 0 533.5 544.3"
            >
              <path fill="#4285F4" d="M533.5 278.4c0-17.4-1.6-34.1-4.7-50.2H272v95h146.9c-6.3 34-25 62.8-53.4 82.1v68h85.9c50.3-46.3 81.1-114.5 81.1-194.9z" />
              <path fill="#34A853" d="M272 544.3c72.6 0 133.5-24.1 178-65.3l-85.9-68c-23.8 16-54.1 25.6-92.1 25.6-70.8 0-130.8-47.8-152.3-112.1H31.2v70.4c44.6 88 135.7 149.4 240.8 149.4z" />
              <path fill="#FBBC05" d="M119.7 324.5c-10.8-32-10.8-66.7 0-98.7V155.4H31.2c-38.8 77.5-38.8 168.4 0 245.9l88.5-76.8z" />
              <path fill="#EA4335" d="M272 107.6c39.6 0 75.3 13.6 103.3 40.2l77.4-77.4C405.5 24.1 344.6 0 272 0 166.9 0 75.8 61.4 31.2 155.4l88.5 70.4C141.2 155.4 201.2 107.6 272 107.6z" />
            </svg>