<svg width="17" height="16" viewBox="0 0 17 16" fill="none" xmlns="http://www.w3.org/2000/svg">
<rect width="16" height="16" transform="translate(0.25)" fill="white" fill-opacity="0.01" style="mix-blend-mode:multiply"/>
<rect x="4.25" y="4" width="8" height="8" fill="white"/>
<rect width="16" height="16" transform="translate(0.25)" fill="white" fill-opacity="0.01" style="mix-blend-mode:multiply"/>
<path d="M8.25 1C6.86553 1 5.51216 1.41054 4.36101 2.17971C3.20987 2.94888 2.31266 4.04213 1.78285 5.32122C1.25303 6.6003 1.11441 8.00776 1.38451 9.36563C1.6546 10.7235 2.32129 11.9708 3.30026 12.9497C4.27922 13.9287 5.5265 14.5954 6.88437 14.8655C8.24224 15.1356 9.6497 14.997 10.9288 14.4672C12.2079 13.9373 13.3011 13.0401 14.0703 11.889C14.8395 10.7378 15.25 9.38447 15.25 8C15.25 6.14348 14.5125 4.36301 13.1997 3.05025C11.887 1.7375 10.1065 1 8.25 1ZM8.25 4C8.39834 4 8.54334 4.04399 8.66668 4.1264C8.79002 4.20881 8.88615 4.32594 8.94291 4.46299C8.99968 4.60003 9.01453 4.75083 8.98559 4.89632C8.95665 5.0418 8.88522 5.17544 8.78033 5.28033C8.67544 5.38522 8.54181 5.45665 8.39632 5.48559C8.25083 5.51453 8.10004 5.49968 7.96299 5.44291C7.82595 5.38614 7.70881 5.29001 7.6264 5.16668C7.54399 5.04334 7.5 4.89834 7.5 4.75C7.5 4.55109 7.57902 4.36032 7.71967 4.21967C7.86033 4.07902 8.05109 4 8.25 4ZM10.25 12.0625H6.25V10.9375H7.6875V8.0625H6.75V6.9375H8.8125V10.9375H10.25V12.0625Z" fill="#0043CE"/>
</svg>
