<svg width="38" height="40" viewBox="0 0 38 40" fill="none" xmlns="http://www.w3.org/2000/svg">
<path d="M32.7219 18.4371H29.0012V15.723H37.4692C37.5495 15.9638 37.5142 16.1822 37.5134 16.3925C37.5134 18.8673 37.4973 21.3422 37.5062 23.817C37.5062 24.1718 37.4058 24.2858 37.0526 24.2713C36.4385 24.2465 35.8212 24.2457 35.2063 24.2713C34.8595 24.2858 34.7375 24.1911 34.7488 23.8274C34.7777 22.8513 34.7664 21.8744 34.7712 20.8982C34.7712 20.7674 34.7712 20.6366 34.7712 20.5186C34.5995 20.4527 34.5441 20.5635 34.471 20.6342C32.2956 22.7486 30.1199 24.8624 27.944 26.9758C26.7929 28.0924 25.6281 29.1961 24.4858 30.3215C24.2779 30.5278 24.1069 30.4998 23.887 30.4018C22.4693 29.7813 21.0517 29.1592 19.6325 28.5467C17.9652 27.8242 16.2915 27.1243 14.6266 26.3994C14.3216 26.2669 14.0567 26.3296 13.7838 26.4427C11.4197 27.4213 9.05886 28.4078 6.6924 29.3815C4.83326 30.1466 2.9677 30.8955 1.03552 31.6806C0.691949 30.8473 0.350795 30.0213 0 29.172C1.0572 28.7353 2.06463 28.3163 3.07366 27.9029C5.10726 27.0697 7.14085 26.2383 9.17445 25.4088C10.8032 24.745 12.4352 24.0875 14.0623 23.418C14.1405 23.3837 14.2253 23.3671 14.3107 23.3695C14.396 23.3718 14.4798 23.3931 14.556 23.4317C17.4852 24.6928 20.4159 25.945 23.3451 27.2118C23.5859 27.3177 23.7328 27.2615 23.907 27.093C24.9939 26.0226 26.0849 24.9582 27.1798 23.8997C28.8816 22.2573 30.5858 20.6176 32.2924 18.9805C32.4725 18.8319 32.6189 18.6467 32.7219 18.4371Z" fill="#A6A6A6"/>
<path d="M30.3211 28.4482C30.4616 28.4337 30.5394 28.4185 30.6173 28.4185C32.7301 28.4185 34.8429 28.4185 36.9589 28.4128C37.219 28.4128 37.3049 28.4931 37.3041 28.7556C37.2992 32.3792 37.3017 36.0027 37.3113 39.6262C37.3113 39.9112 37.2109 39.9891 36.9388 39.9875C34.8517 39.9773 32.7646 39.9754 30.6775 39.9819C30.3949 39.9819 30.3138 39.8927 30.3155 39.615C30.3251 37.6499 30.3203 35.6816 30.3203 33.7189V28.4482H30.3211Z" fill="#EFEFEF"/>
<path d="M24.1978 3.23813C25.1675 4.34671 25.898 5.58211 26.3242 7.00456C26.8418 8.69945 26.8876 10.5034 26.4567 12.2223C25.9819 14.2139 24.8776 15.9992 23.3076 17.3133C21.4364 18.8987 19.2578 19.7119 16.7902 19.6757C13.7815 19.6324 11.2738 18.4395 9.37369 16.1437C7.30263 13.64 6.60586 10.7413 7.37167 7.54641C8.05881 4.68064 9.74616 2.54457 12.3173 1.17109C14.7954 -0.15262 17.4203 -0.347685 20.1038 0.552983C20.2403 0.598739 20.3671 0.694266 20.5245 0.659748C21.8921 1.29456 23.136 2.16762 24.1978 3.23813ZM22.7994 3.67562C22.0922 2.87931 21.2108 2.34629 20.2259 1.96901C19.604 1.69692 18.9489 1.50799 18.2776 1.40709C15.456 1.01215 12.9916 1.74986 10.9382 3.73502C8.34217 6.24437 7.61089 10.2372 9.13047 13.4112C10.8467 17.001 14.4044 18.9011 18.3515 18.2854C20.4972 17.9498 22.268 16.8886 23.6022 15.1844C25.389 12.9023 25.91 10.3223 25.1442 7.52072C24.7356 6.02523 23.9819 4.71918 22.7994 3.67562Z" fill="#121212"/>
<path d="M17.6415 35.6244C17.6415 36.9088 17.6326 38.1931 17.6479 39.4775C17.6479 39.7938 17.5829 39.9214 17.2321 39.919C15.2268 39.903 13.2216 39.903 11.2164 39.919C10.8736 39.919 10.7933 39.8066 10.7949 39.4823C10.8062 36.9024 10.8062 34.3224 10.7949 31.7424C10.7949 31.4213 10.8616 31.2993 11.2116 31.3017C13.2168 31.3177 15.222 31.3177 17.2273 31.3017C17.57 31.3017 17.6519 31.4124 17.6479 31.7367C17.6318 33.03 17.6415 34.3272 17.6415 35.6244Z" fill="#EFEFEF"/>
<path d="M4.04866 33.3862C5.17249 33.3862 6.29632 33.3958 7.42015 33.3797C7.74124 33.3749 7.86245 33.448 7.85924 33.7963C7.84319 35.6951 7.84319 37.5949 7.85924 39.4958C7.85924 39.8385 7.74847 39.9212 7.42336 39.9172C6.08681 39.9011 4.74945 39.926 3.40969 39.9052C2.50099 39.8915 1.59952 40.0039 0.690829 39.9999C0.266985 39.9999 0.144968 39.8257 0.137743 39.4781C0.126505 38.9339 0.0807505 38.3824 0.148983 37.8469C0.229256 37.2449 0.194735 36.6477 0.20517 36.0488C0.218817 35.3135 0.230862 34.5766 0.199556 33.8429C0.182698 33.456 0.323177 33.3749 0.681196 33.3813C1.80101 33.3982 2.92484 33.3854 4.04866 33.3862Z" fill="#EFEFEF"/>
<path d="M27.4354 36.3888C27.4354 37.4179 27.4242 38.4478 27.4418 39.477C27.4475 39.798 27.3696 39.9185 27.0228 39.9152C25.0186 39.8997 23.0137 39.8997 21.0079 39.9152C20.6611 39.9152 20.5873 39.7972 20.5889 39.477C20.6017 37.4054 20.6017 35.3335 20.5889 33.2614C20.5889 32.9403 20.6611 32.8215 21.0071 32.8239C23.0123 32.8399 25.0176 32.8399 27.0228 32.8239C27.3688 32.8239 27.4467 32.9395 27.441 33.2614C27.4242 34.3033 27.4354 35.3461 27.4354 36.3888Z" fill="#EFEFEF"/>
<path d="M22.7996 3.67536C23.982 4.71169 24.7358 6.02175 25.1444 7.51644C25.9102 10.318 25.3852 12.8948 23.6023 15.1802C22.2682 16.8844 20.4974 17.9456 18.3517 18.2811C14.407 18.8976 10.8469 16.9967 9.13065 13.4101C7.61107 10.2353 8.34235 6.24331 10.9384 3.73396C12.9918 1.7488 15.4562 1.01108 18.2778 1.40603C18.9491 1.50693 19.6041 1.69586 20.226 1.96794C20.4034 2.513 20.7294 2.97297 21.0906 3.40564C21.1687 3.49717 21.2662 3.57021 21.376 3.61949C21.4858 3.66877 21.6052 3.69306 21.7255 3.69061C22.0836 3.69382 22.4416 3.68419 22.7996 3.67536ZM21.7472 10.904L21.74 10.8984C21.7383 10.8771 21.7321 10.8565 21.7218 10.8378C21.7114 10.8191 21.6973 10.8029 21.6802 10.7901C21.6631 10.7773 21.6435 10.7684 21.6226 10.7638C21.6018 10.7592 21.5803 10.7591 21.5594 10.7635C21.3015 10.5641 21.0116 10.4099 20.7021 10.3076C20.6354 10.1855 20.5319 10.1871 20.4187 10.2273H19.6681C19.4121 10.1863 19.1696 10.1944 18.9922 10.424C18.9216 10.4609 18.8502 10.4978 18.7803 10.5363C17.6774 11.144 17.1901 12.5223 17.6942 13.667C18.2561 14.9514 19.4939 15.4587 20.7221 15.1119C22.4673 14.6142 23.0501 12.5183 21.8885 11.0806C21.8921 11.039 21.8794 10.9976 21.853 10.9652C21.8266 10.9329 21.7887 10.9121 21.7472 10.9072V10.904ZM19.7027 4.77832L12.7004 13.9014L14.1204 15.0092L21.1396 5.89412L19.7027 4.77832ZM11.3245 7.15602C11.3272 7.48685 11.3953 7.81388 11.5249 8.11829C11.6545 8.4227 11.843 8.69848 12.0796 8.92976C12.3162 9.16104 12.5962 9.34325 12.9034 9.46592C13.2107 9.58858 13.5392 9.64927 13.87 9.64449C15.2395 9.62523 16.3689 8.4717 16.3288 7.10544C16.2838 5.57543 15.1134 4.66433 13.8026 4.63142C12.4467 4.5977 11.3085 5.80662 11.3261 7.15602H11.3245Z" fill="white"/>
<path d="M22.7991 3.67561C22.4411 3.68123 22.0831 3.69086 21.7251 3.69166C21.6048 3.69411 21.4854 3.66982 21.3756 3.62054C21.2658 3.57126 21.1683 3.49822 21.0901 3.40669C20.7289 2.97402 20.403 2.51405 20.2256 1.96899C21.2105 2.34949 22.0919 2.88251 22.7991 3.67561Z" fill="white"/>
<path d="M19.7024 4.77844L21.1393 5.89425L14.1202 15.0093L12.7002 13.9015L19.7024 4.77844Z" fill="#A6A6A6"/>
<path d="M11.3254 7.15635C11.3077 5.80696 12.4492 4.59804 13.8034 4.63256C15.1143 4.66547 16.2847 5.57657 16.3296 7.10659C16.3698 8.47123 15.2403 9.62637 13.8709 9.64564C13.54 9.65041 13.2114 9.58969 12.9041 9.46698C12.5968 9.34427 12.3168 9.16198 12.0802 8.93062C11.8436 8.69925 11.6551 8.42338 11.5256 8.11888C11.396 7.81437 11.328 7.48726 11.3254 7.15635ZM14.6014 7.14271C14.6053 7.03995 14.5882 6.93746 14.5512 6.84153C14.5141 6.7456 14.4579 6.65825 14.3859 6.58482C14.3139 6.51139 14.2277 6.45344 14.1325 6.41451C14.0373 6.37558 13.9352 6.3565 13.8323 6.35844C13.7292 6.35823 13.6271 6.37832 13.5318 6.41758C13.4365 6.45684 13.3498 6.51449 13.2767 6.58724C13.2037 6.66 13.1457 6.74643 13.106 6.8416C13.0664 6.93677 13.0459 7.03881 13.0457 7.14191C13.0408 7.53765 13.4069 7.9318 13.7874 7.94464C13.8939 7.94712 13.9999 7.92816 14.099 7.88889C14.1981 7.84962 14.2883 7.79084 14.3642 7.71604C14.4401 7.64123 14.5002 7.55193 14.541 7.45345C14.5817 7.35496 14.6022 7.24929 14.6014 7.14271Z" fill="#A6A6A6"/>
<path d="M19.668 10.2281H20.4185C20.4852 10.3502 20.5791 10.367 20.7019 10.3084C21.0114 10.4108 21.3013 10.565 21.5592 10.7644C21.5604 10.7858 21.5663 10.8068 21.5764 10.8257C21.5866 10.8447 21.6008 10.8612 21.618 10.874C21.6352 10.8869 21.6551 10.8958 21.6761 10.9002C21.6972 10.9045 21.7189 10.9042 21.7398 10.8992L21.7471 10.9049C21.7423 10.9259 21.7424 10.9478 21.7473 10.9688C21.7523 10.9898 21.7619 11.0094 21.7755 11.0262C21.7891 11.0429 21.8063 11.0564 21.8258 11.0656C21.8454 11.0747 21.8668 11.0793 21.8883 11.079C23.0499 12.5167 22.4671 14.6111 20.722 15.1104C19.4938 15.4612 18.2584 14.9498 17.694 13.6655C17.1899 12.5167 17.6772 11.1385 18.7801 10.5348C18.85 10.4963 18.9214 10.4593 18.9921 10.4224C19.2208 10.3823 19.4721 10.3959 19.668 10.2281ZM20.7798 12.7166C20.7778 12.509 20.6954 12.3101 20.5499 12.162C20.4044 12.0138 20.2071 11.9277 19.9995 11.9219C19.7983 11.9267 19.6065 12.0074 19.4623 12.1478C19.3182 12.2882 19.2325 12.4779 19.2225 12.6789C19.2159 12.7836 19.2305 12.8885 19.2655 12.9874C19.3004 13.0863 19.355 13.1771 19.4258 13.2544C19.4967 13.3317 19.5824 13.3939 19.6779 13.4373C19.7734 13.4807 19.8767 13.5044 19.9815 13.5069C20.0864 13.5094 20.1906 13.4908 20.2881 13.4521C20.3856 13.4134 20.4742 13.3554 20.5488 13.2816C20.6233 13.2078 20.6822 13.1197 20.7219 13.0227C20.7616 12.9256 20.7812 12.8215 20.7798 12.7166Z" fill="#A6A6A6"/>
<path d="M19.6681 10.2282C19.4722 10.396 19.2242 10.3823 18.9922 10.4249C19.1696 10.1953 19.412 10.1873 19.6681 10.2282Z" fill="#EFEFEF"/>
<path d="M20.7013 10.311C20.5825 10.3664 20.4846 10.3495 20.418 10.2307C20.5312 10.1906 20.6347 10.189 20.7013 10.311Z" fill="#EFEFEF"/>
<path d="M21.7392 10.9001C21.7183 10.905 21.6965 10.9053 21.6755 10.901C21.6544 10.8966 21.6346 10.8877 21.6174 10.8748C21.6002 10.862 21.586 10.8455 21.5758 10.8265C21.5657 10.8076 21.5598 10.7867 21.5586 10.7652C21.5795 10.7608 21.601 10.7609 21.6219 10.7655C21.6427 10.7701 21.6623 10.779 21.6794 10.7918C21.6965 10.8046 21.7106 10.8208 21.721 10.8395C21.7313 10.8581 21.7375 10.8788 21.7392 10.9001Z" fill="#EFEFEF"/>
<path d="M21.8879 11.0818C21.8663 11.0821 21.845 11.0775 21.8254 11.0683C21.8059 11.0591 21.7887 11.0457 21.7751 11.0289C21.7615 11.0122 21.7519 10.9925 21.7469 10.9715C21.742 10.9505 21.7419 10.9287 21.7466 10.9076C21.7883 10.9124 21.8263 10.9334 21.8527 10.9659C21.8791 10.9985 21.8918 11.0401 21.8879 11.0818Z" fill="#EFEFEF"/>
<path d="M14.6016 7.14267C14.602 7.24891 14.5811 7.35415 14.5401 7.45217C14.4991 7.55019 14.4389 7.63901 14.363 7.71338C14.2872 7.78775 14.1972 7.84617 14.0983 7.8852C13.9995 7.92422 13.8939 7.94306 13.7877 7.94059C13.4072 7.93176 13.0411 7.53922 13.0459 7.13785C13.0462 7.03476 13.0667 6.93271 13.1063 6.83754C13.146 6.74237 13.204 6.65594 13.277 6.58319C13.3501 6.51044 13.4367 6.45279 13.5321 6.41353C13.6274 6.37427 13.7295 6.35417 13.8326 6.35438C13.9358 6.35242 14.0383 6.37162 14.1337 6.41079C14.2292 6.44996 14.3156 6.50828 14.3877 6.58214C14.4598 6.656 14.5159 6.74385 14.5527 6.84025C14.5895 6.93666 14.6062 7.03958 14.6016 7.14267Z" fill="white"/>
<path d="M20.7795 12.7127C20.781 12.8175 20.7613 12.9216 20.7216 13.0187C20.6819 13.1158 20.6231 13.2039 20.5485 13.2776C20.474 13.3514 20.3854 13.4094 20.2879 13.4481C20.1904 13.4868 20.0861 13.5055 19.9813 13.5029C19.8764 13.5004 19.7732 13.4767 19.6777 13.4333C19.5822 13.39 19.4965 13.3277 19.4256 13.2504C19.3547 13.1731 19.3002 13.0823 19.2652 12.9834C19.2303 12.8845 19.2157 12.7796 19.2222 12.6749C19.2323 12.474 19.318 12.2843 19.4621 12.1439C19.6062 12.0035 19.7981 11.9228 19.9993 11.918C20.2069 11.9238 20.4041 12.0098 20.5496 12.158C20.6951 12.3062 20.7775 12.505 20.7795 12.7127Z" fill="white"/>
</svg>
