<svg width="24" height="24" viewBox="0 0 24 24" fill="none" xmlns="http://www.w3.org/2000/svg">
<rect width="16" height="16" transform="translate(4 4)" fill="white" fill-opacity="0.01" style="mix-blend-mode:multiply"/>
<path d="M10 9.0001H7.39C8.03668 8.00626 8.98721 7.24802 10.0999 6.83839C11.2126 6.42876 12.4279 6.38969 13.5646 6.72699C14.7013 7.0643 15.6986 7.75992 16.4078 8.71016C17.117 9.66041 17.5001 10.8144 17.5 12.0001H18.5C18.5014 10.6628 18.0903 9.35771 17.3227 8.26265C16.5552 7.1676 15.4686 6.33593 14.2111 5.88104C12.9536 5.42615 11.5864 5.37018 10.2959 5.72077C9.00541 6.07136 7.85447 6.81144 7 7.8401V6.0001H6V10.0001H10V9.0001Z" fill="#161616"/>
<path d="M14 15.0001H16.61C15.9633 15.9939 15.0128 16.7522 13.9001 17.1618C12.7874 17.5714 11.5721 17.6105 10.4354 17.2732C9.29867 16.9359 8.30139 16.2403 7.59221 15.29C6.88303 14.3398 6.49993 13.1858 6.5 12.0001H5.5C5.49863 13.3374 5.90973 14.6425 6.67727 15.7375C7.4448 16.8326 8.53141 17.6643 9.78892 18.1192C11.0464 18.5741 12.4136 18.63 13.7041 18.2794C14.9946 17.9288 16.1455 17.1888 17 16.1601V18.0001H18V14.0001H14V15.0001Z" fill="#161616"/>
</svg>
