<svg width="17" height="16" viewBox="0 0 17 16" fill="none" xmlns="http://www.w3.org/2000/svg">
<rect width="16" height="16" transform="translate(0.25)" fill="white" fill-opacity="0.01" style="mix-blend-mode:multiply"/>
<rect x="6.25" y="6" width="4" height="9" fill="black"/>
<rect width="16" height="16" transform="translate(0.25)" fill="white" fill-opacity="0.01" style="mix-blend-mode:multiply"/>
<path d="M8.251 3.08571H8.249L2.57435 13.9983L2.5753 14H13.9247L13.9257 13.9983L8.251 3.08571ZM7.6875 6.00001H8.8125V10.5H7.6875V6.00001ZM8.25 13C8.10167 13 7.95666 12.956 7.83333 12.8736C7.70999 12.7912 7.61386 12.6741 7.55709 12.537C7.50033 12.4 7.48548 12.2492 7.51441 12.1037C7.54335 11.9582 7.61478 11.8246 7.71967 11.7197C7.82456 11.6148 7.9582 11.5434 8.10369 11.5144C8.24917 11.4855 8.39997 11.5003 8.53702 11.5571C8.67406 11.6139 8.79119 11.71 8.87361 11.8333C8.95602 11.9567 9 12.1017 9 12.25C9 12.4489 8.92099 12.6397 8.78033 12.7803C8.63968 12.921 8.44892 13 8.25 13Z" fill="#F1C21B"/>
<path d="M14.75 15H1.75C1.6641 15 1.57965 14.9779 1.50478 14.9357C1.42992 14.8936 1.36718 14.8329 1.3226 14.7595C1.27802 14.686 1.25311 14.6024 1.25027 14.5165C1.24744 14.4307 1.26677 14.3455 1.3064 14.2693L7.8064 1.76931C7.84862 1.68812 7.91231 1.62008 7.99053 1.5726C8.06875 1.52511 8.1585 1.5 8.25 1.5C8.34151 1.5 8.43126 1.52511 8.50948 1.5726C8.5877 1.62008 8.65138 1.68812 8.6936 1.76931L15.1936 14.2693C15.2332 14.3455 15.2526 14.4307 15.2497 14.5165C15.2469 14.6024 15.222 14.686 15.1774 14.7595C15.1328 14.8329 15.0701 14.8936 14.9952 14.9357C14.9204 14.9779 14.8359 15 14.75 15ZM2.5753 14H13.9247L13.9257 13.9983L8.251 3.08571H8.249L2.57435 13.9983L2.5753 14Z" fill="#F1C21B"/>
<path d="M14.75 14.5H1.75L8.25 2L14.75 14.5Z" stroke="#8E6A00"/>
</svg>
